%TF.GenerationSoftware,KiCad,Pcbnew,(5.1.6)-1*%
%TF.CreationDate,2021-02-27T12:52:12+00:00*%
%TF.ProjectId,EgretCudaAdapter,45677265-7443-4756-9461-416461707465,rev?*%
%TF.SameCoordinates,Original*%
%TF.FileFunction,Copper,L1,Top*%
%TF.FilePolarity,Positive*%
%FSLAX46Y46*%
G04 Gerber Fmt 4.6, Leading zero omitted, Abs format (unit mm)*
G04 Created by KiCad (PCBNEW (5.1.6)-1) date 2021-02-27 12:52:12*
%MOMM*%
%LPD*%
G01*
G04 APERTURE LIST*
%TA.AperFunction,ComponentPad*%
%ADD10O,1.600000X1.600000*%
%TD*%
%TA.AperFunction,ComponentPad*%
%ADD11R,1.600000X1.600000*%
%TD*%
%TA.AperFunction,SMDPad,CuDef*%
%ADD12R,1.925000X0.700000*%
%TD*%
%TA.AperFunction,SMDPad,CuDef*%
%ADD13R,0.700000X1.925000*%
%TD*%
%TA.AperFunction,ViaPad*%
%ADD14C,0.600000*%
%TD*%
%TA.AperFunction,Conductor*%
%ADD15C,0.200000*%
%TD*%
%TA.AperFunction,Conductor*%
%ADD16C,0.254000*%
%TD*%
%TA.AperFunction,NonConductor*%
%ADD17C,0.254000*%
%TD*%
G04 APERTURE END LIST*
D10*
%TO.P,344-0440-B,18*%
%TO.N,/PB5*%
X138880000Y-87700000D03*
%TO.P,344-0440-B,9*%
%TO.N,/CB2*%
X146500000Y-67380000D03*
%TO.P,344-0440-B,17*%
%TO.N,/PB4*%
X138880000Y-85160000D03*
%TO.P,344-0440-B,8*%
%TO.N,/CB1*%
X146500000Y-69920000D03*
%TO.P,344-0440-B,16*%
%TO.N,/C3.7M*%
X138880000Y-82620000D03*
%TO.P,344-0440-B,7*%
%TO.N,Net-(344-0440-B1-Pad7)*%
X146500000Y-72460000D03*
%TO.P,344-0440-B,15*%
%TO.N,Net-(344-0440-B1-Pad15)*%
X138880000Y-80080000D03*
%TO.P,344-0440-B,6*%
%TO.N,Net-(344-0440-B1-Pad6)*%
X146500000Y-75000000D03*
%TO.P,344-0440-B,14*%
%TO.N,/VCC*%
X138880000Y-77540000D03*
%TO.P,344-0440-B,5*%
%TO.N,/GND*%
X146500000Y-77540000D03*
%TO.P,344-0440-B,13*%
%TO.N,Net-(344-0440-B1-Pad13)*%
X138880000Y-75000000D03*
%TO.P,344-0440-B,4*%
%TO.N,/RESET*%
X146500000Y-80080000D03*
%TO.P,344-0440-B,12*%
%TO.N,Net-(344-0440-B1-Pad12)*%
X138880000Y-72460000D03*
%TO.P,344-0440-B,3*%
%TO.N,/T0CKI*%
X146500000Y-82620000D03*
%TO.P,344-0440-B,11*%
%TO.N,Net-(344-0440-B1-Pad11)*%
X138880000Y-69920000D03*
%TO.P,344-0440-B,2*%
%TO.N,/ADB*%
X146500000Y-85160000D03*
%TO.P,344-0440-B,10*%
%TO.N,/PB3*%
X138880000Y-67380000D03*
D11*
%TO.P,344-0440-B,1*%
%TO.N,/RA2*%
X146500000Y-87700000D03*
%TD*%
D12*
%TO.P,344S0440-B,25*%
%TO.N,Net-(344S0440-B1-Pad25)*%
X121677500Y-71810000D03*
%TO.P,344S0440-B,24*%
%TO.N,Net-(344S0440-B1-Pad24)*%
X121677500Y-70540000D03*
%TO.P,344S0440-B,23*%
%TO.N,Net-(344S0440-B1-Pad23)*%
X121677500Y-69270000D03*
%TO.P,344S0440-B,22*%
%TO.N,/VCC*%
X121677500Y-68000000D03*
%TO.P,344S0440-B,21*%
%TO.N,Net-(344S0440-B1-Pad21)*%
X121677500Y-66730000D03*
%TO.P,344S0440-B,20*%
%TO.N,Net-(344S0440-B1-Pad20)*%
X121677500Y-65460000D03*
%TO.P,344S0440-B,19*%
%TO.N,Net-(344S0440-B1-Pad19)*%
X121677500Y-64190000D03*
D13*
%TO.P,344S0440-B,18*%
%TO.N,Net-(344S0440-B1-Pad18)*%
X123190000Y-62677500D03*
%TO.P,344S0440-B,17*%
%TO.N,Net-(344S0440-B1-Pad17)*%
X124460000Y-62677500D03*
%TO.P,344S0440-B,16*%
%TO.N,/PB3*%
X125730000Y-62677500D03*
%TO.P,344S0440-B,15*%
%TO.N,Net-(344S0440-B1-Pad15)*%
X127000000Y-62677500D03*
%TO.P,344S0440-B,14*%
%TO.N,/CB2*%
X128270000Y-62677500D03*
%TO.P,344S0440-B,13*%
%TO.N,/CB1*%
X129540000Y-62677500D03*
%TO.P,344S0440-B,12*%
%TO.N,Net-(344S0440-B1-Pad12)*%
X130810000Y-62677500D03*
D12*
%TO.P,344S0440-B,11*%
%TO.N,Net-(344S0440-B1-Pad11)*%
X132322500Y-64190000D03*
%TO.P,344S0440-B,10*%
%TO.N,Net-(344S0440-B1-Pad10)*%
X132322500Y-65460000D03*
%TO.P,344S0440-B,9*%
%TO.N,Net-(344S0440-B1-Pad9)*%
X132322500Y-66730000D03*
%TO.P,344S0440-B,8*%
%TO.N,Net-(344S0440-B1-Pad8)*%
X132322500Y-68000000D03*
%TO.P,344S0440-B,7*%
%TO.N,/GND*%
X132322500Y-69270000D03*
%TO.P,344S0440-B,6*%
%TO.N,Net-(344S0440-B1-Pad6)*%
X132322500Y-70540000D03*
%TO.P,344S0440-B,5*%
%TO.N,Net-(344S0440-B1-Pad5)*%
X132322500Y-71810000D03*
D13*
%TO.P,344S0440-B,26*%
%TO.N,/C3.7M*%
X123190000Y-73322500D03*
%TO.P,344S0440-B,27*%
%TO.N,/PB4*%
X124460000Y-73322500D03*
%TO.P,344S0440-B,28*%
%TO.N,/PB5*%
X125730000Y-73322500D03*
%TO.P,344S0440-B,4*%
%TO.N,/RESET*%
X130810000Y-73322500D03*
%TO.P,344S0440-B,3*%
%TO.N,Net-(344S0440-B1-Pad3)*%
X129540000Y-73322500D03*
%TO.P,344S0440-B,2*%
%TO.N,/T0CKI*%
X128270000Y-73322500D03*
%TO.P,344S0440-B,1*%
%TO.N,/RA2*%
X127000000Y-73322500D03*
%TD*%
D14*
%TO.N,/VCC*%
X141000000Y-77500000D03*
X124000000Y-68000000D03*
%TO.N,/PB3*%
X126200000Y-64740000D03*
%TO.N,/GND*%
X144500000Y-77500000D03*
X127000000Y-68000000D03*
%TO.N,/C3.7M*%
X123280000Y-75370000D03*
%TO.N,/PB4*%
X129120000Y-69683400D03*
%TO.N,/RA2*%
X129250700Y-70881700D03*
%TD*%
D15*
%TO.N,/GND*%
X138239500Y-71183500D02*
X139509500Y-71183500D01*
X138239500Y-68643500D02*
X139573000Y-68643500D01*
%TO.N,/VCC*%
X124000000Y-68000000D02*
X121677500Y-68000000D01*
%TO.N,/PB3*%
X125730000Y-62677500D02*
X125730000Y-64270000D01*
X125730000Y-64270000D02*
X126200000Y-64740000D01*
%TO.N,/CB2*%
X146500000Y-67380000D02*
X145399700Y-67380000D01*
X128270000Y-62677500D02*
X128270000Y-61414700D01*
X128270000Y-61414700D02*
X128670300Y-61014400D01*
X128670300Y-61014400D02*
X131883100Y-61014400D01*
X131883100Y-61014400D02*
X136679100Y-65810400D01*
X136679100Y-65810400D02*
X143830100Y-65810400D01*
X143830100Y-65810400D02*
X145399700Y-67380000D01*
%TO.N,/CB1*%
X129540000Y-62677500D02*
X129540000Y-61414700D01*
X146500000Y-69920000D02*
X145399700Y-69920000D01*
X145399700Y-69920000D02*
X141722400Y-66242700D01*
X141722400Y-66242700D02*
X136545100Y-66242700D01*
X136545100Y-66242700D02*
X131717100Y-61414700D01*
X131717100Y-61414700D02*
X129540000Y-61414700D01*
%TO.N,/GND*%
X132322500Y-69270000D02*
X135310000Y-69270000D01*
X135310000Y-69270000D02*
X137160000Y-71120000D01*
%TO.N,/C3.7M*%
X123190000Y-73322500D02*
X123190000Y-74585300D01*
X123190000Y-74585300D02*
X123280000Y-74675300D01*
X123280000Y-74675300D02*
X123280000Y-75370000D01*
%TO.N,/PB4*%
X124460000Y-73322500D02*
X124460000Y-72059700D01*
X124460000Y-72059700D02*
X126836200Y-69683500D01*
X126836200Y-69683500D02*
X129120000Y-69683500D01*
X129120000Y-69683500D02*
X129120000Y-69683400D01*
%TO.N,/PB5*%
X138880000Y-87700000D02*
X138880000Y-86599700D01*
X125730000Y-73322500D02*
X125730000Y-74585300D01*
X125730000Y-74585300D02*
X126634200Y-75489500D01*
X126634200Y-75489500D02*
X135200900Y-75489500D01*
X135200900Y-75489500D02*
X138561900Y-78850500D01*
X138561900Y-78850500D02*
X139207800Y-78850500D01*
X139207800Y-78850500D02*
X139989500Y-79632200D01*
X139989500Y-79632200D02*
X139989500Y-85718200D01*
X139989500Y-85718200D02*
X139108000Y-86599700D01*
X139108000Y-86599700D02*
X138880000Y-86599700D01*
%TO.N,/RESET*%
X130810000Y-73322500D02*
X130810000Y-74585300D01*
X145399700Y-80080000D02*
X145399700Y-79939700D01*
X145399700Y-79939700D02*
X139353700Y-73893700D01*
X139353700Y-73893700D02*
X132151900Y-73893700D01*
X132151900Y-73893700D02*
X131460300Y-74585300D01*
X131460300Y-74585300D02*
X130810000Y-74585300D01*
X146500000Y-80080000D02*
X145399700Y-80080000D01*
%TO.N,/T0CKI*%
X146500000Y-82620000D02*
X146500000Y-81519700D01*
X128270000Y-73322500D02*
X128270000Y-74585300D01*
X128270000Y-74585300D02*
X128674300Y-74989600D01*
X128674300Y-74989600D02*
X136090000Y-74989600D01*
X136090000Y-74989600D02*
X137228700Y-76128300D01*
X137228700Y-76128300D02*
X140491600Y-76128300D01*
X140491600Y-76128300D02*
X145883000Y-81519700D01*
X145883000Y-81519700D02*
X146500000Y-81519700D01*
%TO.N,/RA2*%
X127000000Y-73322500D02*
X127000000Y-72059700D01*
X127000000Y-72059700D02*
X128072700Y-72059700D01*
X128072700Y-72059700D02*
X129250700Y-70881700D01*
%TD*%
D16*
%TO.N,/GND*%
G36*
X144854446Y-70414193D02*
G01*
X144877462Y-70442238D01*
X144905506Y-70465253D01*
X144989380Y-70534087D01*
X145117066Y-70602337D01*
X145255615Y-70644365D01*
X145258324Y-70644632D01*
X145385363Y-70834759D01*
X145585241Y-71034637D01*
X145817759Y-71190000D01*
X145585241Y-71345363D01*
X145385363Y-71545241D01*
X145228320Y-71780273D01*
X145120147Y-72041426D01*
X145065000Y-72318665D01*
X145065000Y-72601335D01*
X145120147Y-72878574D01*
X145228320Y-73139727D01*
X145385363Y-73374759D01*
X145585241Y-73574637D01*
X145817759Y-73730000D01*
X145585241Y-73885363D01*
X145385363Y-74085241D01*
X145228320Y-74320273D01*
X145120147Y-74581426D01*
X145065000Y-74858665D01*
X145065000Y-75141335D01*
X145120147Y-75418574D01*
X145228320Y-75679727D01*
X145385363Y-75914759D01*
X145585241Y-76114637D01*
X145820273Y-76271680D01*
X145830865Y-76276067D01*
X145644869Y-76387615D01*
X145436481Y-76576586D01*
X145268963Y-76802580D01*
X145148754Y-77056913D01*
X145108096Y-77190961D01*
X145230085Y-77413000D01*
X146373000Y-77413000D01*
X146373000Y-77393000D01*
X146627000Y-77393000D01*
X146627000Y-77413000D01*
X146647000Y-77413000D01*
X146647000Y-77667000D01*
X146627000Y-77667000D01*
X146627000Y-77687000D01*
X146373000Y-77687000D01*
X146373000Y-77667000D01*
X145230085Y-77667000D01*
X145108096Y-77889039D01*
X145148754Y-78023087D01*
X145268963Y-78277420D01*
X145436481Y-78503414D01*
X145644869Y-78692385D01*
X145830865Y-78803933D01*
X145820273Y-78808320D01*
X145585241Y-78965363D01*
X145525025Y-79025579D01*
X139934421Y-73434975D01*
X139994637Y-73374759D01*
X140151680Y-73139727D01*
X140259853Y-72878574D01*
X140315000Y-72601335D01*
X140315000Y-72318665D01*
X140259853Y-72041426D01*
X140151680Y-71780273D01*
X139994637Y-71545241D01*
X139794759Y-71345363D01*
X139562241Y-71190000D01*
X139794759Y-71034637D01*
X139994637Y-70834759D01*
X140151680Y-70599727D01*
X140259853Y-70338574D01*
X140315000Y-70061335D01*
X140315000Y-69778665D01*
X140259853Y-69501426D01*
X140151680Y-69240273D01*
X139994637Y-69005241D01*
X139794759Y-68805363D01*
X139562241Y-68650000D01*
X139794759Y-68494637D01*
X139994637Y-68294759D01*
X140151680Y-68059727D01*
X140259853Y-67798574D01*
X140315000Y-67521335D01*
X140315000Y-67238665D01*
X140263090Y-66977700D01*
X141417954Y-66977700D01*
X144854446Y-70414193D01*
G37*
X144854446Y-70414193D02*
X144877462Y-70442238D01*
X144905506Y-70465253D01*
X144989380Y-70534087D01*
X145117066Y-70602337D01*
X145255615Y-70644365D01*
X145258324Y-70644632D01*
X145385363Y-70834759D01*
X145585241Y-71034637D01*
X145817759Y-71190000D01*
X145585241Y-71345363D01*
X145385363Y-71545241D01*
X145228320Y-71780273D01*
X145120147Y-72041426D01*
X145065000Y-72318665D01*
X145065000Y-72601335D01*
X145120147Y-72878574D01*
X145228320Y-73139727D01*
X145385363Y-73374759D01*
X145585241Y-73574637D01*
X145817759Y-73730000D01*
X145585241Y-73885363D01*
X145385363Y-74085241D01*
X145228320Y-74320273D01*
X145120147Y-74581426D01*
X145065000Y-74858665D01*
X145065000Y-75141335D01*
X145120147Y-75418574D01*
X145228320Y-75679727D01*
X145385363Y-75914759D01*
X145585241Y-76114637D01*
X145820273Y-76271680D01*
X145830865Y-76276067D01*
X145644869Y-76387615D01*
X145436481Y-76576586D01*
X145268963Y-76802580D01*
X145148754Y-77056913D01*
X145108096Y-77190961D01*
X145230085Y-77413000D01*
X146373000Y-77413000D01*
X146373000Y-77393000D01*
X146627000Y-77393000D01*
X146627000Y-77413000D01*
X146647000Y-77413000D01*
X146647000Y-77667000D01*
X146627000Y-77667000D01*
X146627000Y-77687000D01*
X146373000Y-77687000D01*
X146373000Y-77667000D01*
X145230085Y-77667000D01*
X145108096Y-77889039D01*
X145148754Y-78023087D01*
X145268963Y-78277420D01*
X145436481Y-78503414D01*
X145644869Y-78692385D01*
X145830865Y-78803933D01*
X145820273Y-78808320D01*
X145585241Y-78965363D01*
X145525025Y-79025579D01*
X139934421Y-73434975D01*
X139994637Y-73374759D01*
X140151680Y-73139727D01*
X140259853Y-72878574D01*
X140315000Y-72601335D01*
X140315000Y-72318665D01*
X140259853Y-72041426D01*
X140151680Y-71780273D01*
X139994637Y-71545241D01*
X139794759Y-71345363D01*
X139562241Y-71190000D01*
X139794759Y-71034637D01*
X139994637Y-70834759D01*
X140151680Y-70599727D01*
X140259853Y-70338574D01*
X140315000Y-70061335D01*
X140315000Y-69778665D01*
X140259853Y-69501426D01*
X140151680Y-69240273D01*
X139994637Y-69005241D01*
X139794759Y-68805363D01*
X139562241Y-68650000D01*
X139794759Y-68494637D01*
X139994637Y-68294759D01*
X140151680Y-68059727D01*
X140259853Y-67798574D01*
X140315000Y-67521335D01*
X140315000Y-67238665D01*
X140263090Y-66977700D01*
X141417954Y-66977700D01*
X144854446Y-70414193D01*
G36*
X130215820Y-64229502D02*
G01*
X130335518Y-64265812D01*
X130460000Y-64278072D01*
X130721928Y-64278072D01*
X130721928Y-64540000D01*
X130734188Y-64664482D01*
X130770498Y-64784180D01*
X130792317Y-64825000D01*
X130770498Y-64865820D01*
X130734188Y-64985518D01*
X130721928Y-65110000D01*
X130721928Y-65810000D01*
X130734188Y-65934482D01*
X130770498Y-66054180D01*
X130792317Y-66095000D01*
X130770498Y-66135820D01*
X130734188Y-66255518D01*
X130721928Y-66380000D01*
X130721928Y-67080000D01*
X130734188Y-67204482D01*
X130770498Y-67324180D01*
X130792317Y-67365000D01*
X130770498Y-67405820D01*
X130734188Y-67525518D01*
X130721928Y-67650000D01*
X130721928Y-68350000D01*
X130734188Y-68474482D01*
X130770498Y-68594180D01*
X130792317Y-68635000D01*
X130770498Y-68675820D01*
X130734188Y-68795518D01*
X130721928Y-68920000D01*
X130725000Y-68984250D01*
X130883750Y-69143000D01*
X132195500Y-69143000D01*
X132195500Y-69123000D01*
X132449500Y-69123000D01*
X132449500Y-69143000D01*
X133761250Y-69143000D01*
X133920000Y-68984250D01*
X133923072Y-68920000D01*
X133910812Y-68795518D01*
X133874502Y-68675820D01*
X133852683Y-68635000D01*
X133874502Y-68594180D01*
X133910812Y-68474482D01*
X133923072Y-68350000D01*
X133923072Y-67650000D01*
X133910812Y-67525518D01*
X133874502Y-67405820D01*
X133852683Y-67365000D01*
X133874502Y-67324180D01*
X133910812Y-67204482D01*
X133923072Y-67080000D01*
X133923072Y-66380000D01*
X133910812Y-66255518D01*
X133874502Y-66135820D01*
X133852683Y-66095000D01*
X133874502Y-66054180D01*
X133910812Y-65934482D01*
X133923072Y-65810000D01*
X133923072Y-65110000D01*
X133910812Y-64985518D01*
X133874502Y-64865820D01*
X133852683Y-64825000D01*
X133874502Y-64784180D01*
X133910812Y-64664482D01*
X133912302Y-64649349D01*
X135999846Y-66736893D01*
X136022862Y-66764938D01*
X136134780Y-66856787D01*
X136262467Y-66925037D01*
X136358986Y-66954316D01*
X136401014Y-66967065D01*
X136545099Y-66981256D01*
X136581204Y-66977700D01*
X137496910Y-66977700D01*
X137445000Y-67238665D01*
X137445000Y-67521335D01*
X137500147Y-67798574D01*
X137608320Y-68059727D01*
X137765363Y-68294759D01*
X137965241Y-68494637D01*
X138197759Y-68650000D01*
X137965241Y-68805363D01*
X137765363Y-69005241D01*
X137608320Y-69240273D01*
X137500147Y-69501426D01*
X137445000Y-69778665D01*
X137445000Y-70061335D01*
X137500147Y-70338574D01*
X137608320Y-70599727D01*
X137765363Y-70834759D01*
X137965241Y-71034637D01*
X138197759Y-71190000D01*
X137965241Y-71345363D01*
X137765363Y-71545241D01*
X137608320Y-71780273D01*
X137500147Y-72041426D01*
X137445000Y-72318665D01*
X137445000Y-72601335D01*
X137500147Y-72878574D01*
X137608320Y-73139727D01*
X137620997Y-73158700D01*
X132187996Y-73158700D01*
X132151899Y-73155145D01*
X132115802Y-73158700D01*
X132115795Y-73158700D01*
X132022032Y-73167935D01*
X132007814Y-73169335D01*
X131977882Y-73178415D01*
X131869267Y-73211363D01*
X131798072Y-73249417D01*
X131798072Y-72798072D01*
X133285000Y-72798072D01*
X133409482Y-72785812D01*
X133529180Y-72749502D01*
X133639494Y-72690537D01*
X133736185Y-72611185D01*
X133815537Y-72514494D01*
X133874502Y-72404180D01*
X133910812Y-72284482D01*
X133923072Y-72160000D01*
X133923072Y-71460000D01*
X133910812Y-71335518D01*
X133874502Y-71215820D01*
X133852683Y-71175000D01*
X133874502Y-71134180D01*
X133910812Y-71014482D01*
X133923072Y-70890000D01*
X133923072Y-70190000D01*
X133910812Y-70065518D01*
X133874502Y-69945820D01*
X133852683Y-69905000D01*
X133874502Y-69864180D01*
X133910812Y-69744482D01*
X133923072Y-69620000D01*
X133920000Y-69555750D01*
X133761250Y-69397000D01*
X132449500Y-69397000D01*
X132449500Y-69417000D01*
X132195500Y-69417000D01*
X132195500Y-69397000D01*
X130883750Y-69397000D01*
X130725000Y-69555750D01*
X130721928Y-69620000D01*
X130734188Y-69744482D01*
X130770498Y-69864180D01*
X130792317Y-69905000D01*
X130770498Y-69945820D01*
X130734188Y-70065518D01*
X130721928Y-70190000D01*
X130721928Y-70890000D01*
X130734188Y-71014482D01*
X130770498Y-71134180D01*
X130792317Y-71175000D01*
X130770498Y-71215820D01*
X130734188Y-71335518D01*
X130721928Y-71460000D01*
X130721928Y-71721928D01*
X130460000Y-71721928D01*
X130335518Y-71734188D01*
X130215820Y-71770498D01*
X130175000Y-71792317D01*
X130134180Y-71770498D01*
X130014482Y-71734188D01*
X129890000Y-71721928D01*
X129665482Y-71721928D01*
X129693589Y-71710286D01*
X129846728Y-71607962D01*
X129976962Y-71477728D01*
X130079286Y-71324589D01*
X130149768Y-71154429D01*
X130185700Y-70973789D01*
X130185700Y-70789611D01*
X130149768Y-70608971D01*
X130079286Y-70438811D01*
X129976962Y-70285672D01*
X129896112Y-70204822D01*
X129948586Y-70126289D01*
X130019068Y-69956129D01*
X130055000Y-69775489D01*
X130055000Y-69591311D01*
X130019068Y-69410671D01*
X129948586Y-69240511D01*
X129846262Y-69087372D01*
X129716028Y-68957138D01*
X129562889Y-68854814D01*
X129392729Y-68784332D01*
X129212089Y-68748400D01*
X129027911Y-68748400D01*
X128847271Y-68784332D01*
X128677111Y-68854814D01*
X128536900Y-68948500D01*
X126872294Y-68948500D01*
X126836199Y-68944945D01*
X126800104Y-68948500D01*
X126800095Y-68948500D01*
X126692115Y-68959135D01*
X126553567Y-69001163D01*
X126425880Y-69069413D01*
X126313962Y-69161262D01*
X126290946Y-69189307D01*
X123965808Y-71514446D01*
X123937763Y-71537462D01*
X123845914Y-71649380D01*
X123800583Y-71734188D01*
X123781594Y-71769714D01*
X123664482Y-71734188D01*
X123540000Y-71721928D01*
X123278072Y-71721928D01*
X123278072Y-71460000D01*
X123265812Y-71335518D01*
X123229502Y-71215820D01*
X123207683Y-71175000D01*
X123229502Y-71134180D01*
X123265812Y-71014482D01*
X123278072Y-70890000D01*
X123278072Y-70190000D01*
X123265812Y-70065518D01*
X123229502Y-69945820D01*
X123207683Y-69905000D01*
X123229502Y-69864180D01*
X123265812Y-69744482D01*
X123278072Y-69620000D01*
X123278072Y-68920000D01*
X123265812Y-68795518D01*
X123247454Y-68735000D01*
X123417049Y-68735000D01*
X123557111Y-68828586D01*
X123727271Y-68899068D01*
X123907911Y-68935000D01*
X124092089Y-68935000D01*
X124272729Y-68899068D01*
X124442889Y-68828586D01*
X124596028Y-68726262D01*
X124726262Y-68596028D01*
X124828586Y-68442889D01*
X124899068Y-68272729D01*
X124935000Y-68092089D01*
X124935000Y-67907911D01*
X124899068Y-67727271D01*
X124828586Y-67557111D01*
X124726262Y-67403972D01*
X124596028Y-67273738D01*
X124442889Y-67171414D01*
X124272729Y-67100932D01*
X124092089Y-67065000D01*
X123907911Y-67065000D01*
X123727271Y-67100932D01*
X123557111Y-67171414D01*
X123417049Y-67265000D01*
X123247454Y-67265000D01*
X123265812Y-67204482D01*
X123278072Y-67080000D01*
X123278072Y-66380000D01*
X123265812Y-66255518D01*
X123229502Y-66135820D01*
X123207683Y-66095000D01*
X123229502Y-66054180D01*
X123265812Y-65934482D01*
X123278072Y-65810000D01*
X123278072Y-65110000D01*
X123265812Y-64985518D01*
X123229502Y-64865820D01*
X123207683Y-64825000D01*
X123229502Y-64784180D01*
X123265812Y-64664482D01*
X123278072Y-64540000D01*
X123278072Y-64278072D01*
X123540000Y-64278072D01*
X123664482Y-64265812D01*
X123784180Y-64229502D01*
X123825000Y-64207683D01*
X123865820Y-64229502D01*
X123985518Y-64265812D01*
X124110000Y-64278072D01*
X124810000Y-64278072D01*
X124934482Y-64265812D01*
X124993623Y-64247872D01*
X124991444Y-64270000D01*
X125005635Y-64414085D01*
X125023182Y-64471928D01*
X125047664Y-64552633D01*
X125115914Y-64680320D01*
X125207763Y-64792238D01*
X125235808Y-64815254D01*
X125268068Y-64847514D01*
X125300932Y-65012729D01*
X125371414Y-65182889D01*
X125473738Y-65336028D01*
X125603972Y-65466262D01*
X125757111Y-65568586D01*
X125927271Y-65639068D01*
X126107911Y-65675000D01*
X126292089Y-65675000D01*
X126472729Y-65639068D01*
X126642889Y-65568586D01*
X126796028Y-65466262D01*
X126926262Y-65336028D01*
X127028586Y-65182889D01*
X127099068Y-65012729D01*
X127135000Y-64832089D01*
X127135000Y-64647911D01*
X127099068Y-64467271D01*
X127028586Y-64297111D01*
X127015865Y-64278072D01*
X127350000Y-64278072D01*
X127474482Y-64265812D01*
X127594180Y-64229502D01*
X127635000Y-64207683D01*
X127675820Y-64229502D01*
X127795518Y-64265812D01*
X127920000Y-64278072D01*
X128620000Y-64278072D01*
X128744482Y-64265812D01*
X128864180Y-64229502D01*
X128905000Y-64207683D01*
X128945820Y-64229502D01*
X129065518Y-64265812D01*
X129190000Y-64278072D01*
X129890000Y-64278072D01*
X130014482Y-64265812D01*
X130134180Y-64229502D01*
X130175000Y-64207683D01*
X130215820Y-64229502D01*
G37*
X130215820Y-64229502D02*
X130335518Y-64265812D01*
X130460000Y-64278072D01*
X130721928Y-64278072D01*
X130721928Y-64540000D01*
X130734188Y-64664482D01*
X130770498Y-64784180D01*
X130792317Y-64825000D01*
X130770498Y-64865820D01*
X130734188Y-64985518D01*
X130721928Y-65110000D01*
X130721928Y-65810000D01*
X130734188Y-65934482D01*
X130770498Y-66054180D01*
X130792317Y-66095000D01*
X130770498Y-66135820D01*
X130734188Y-66255518D01*
X130721928Y-66380000D01*
X130721928Y-67080000D01*
X130734188Y-67204482D01*
X130770498Y-67324180D01*
X130792317Y-67365000D01*
X130770498Y-67405820D01*
X130734188Y-67525518D01*
X130721928Y-67650000D01*
X130721928Y-68350000D01*
X130734188Y-68474482D01*
X130770498Y-68594180D01*
X130792317Y-68635000D01*
X130770498Y-68675820D01*
X130734188Y-68795518D01*
X130721928Y-68920000D01*
X130725000Y-68984250D01*
X130883750Y-69143000D01*
X132195500Y-69143000D01*
X132195500Y-69123000D01*
X132449500Y-69123000D01*
X132449500Y-69143000D01*
X133761250Y-69143000D01*
X133920000Y-68984250D01*
X133923072Y-68920000D01*
X133910812Y-68795518D01*
X133874502Y-68675820D01*
X133852683Y-68635000D01*
X133874502Y-68594180D01*
X133910812Y-68474482D01*
X133923072Y-68350000D01*
X133923072Y-67650000D01*
X133910812Y-67525518D01*
X133874502Y-67405820D01*
X133852683Y-67365000D01*
X133874502Y-67324180D01*
X133910812Y-67204482D01*
X133923072Y-67080000D01*
X133923072Y-66380000D01*
X133910812Y-66255518D01*
X133874502Y-66135820D01*
X133852683Y-66095000D01*
X133874502Y-66054180D01*
X133910812Y-65934482D01*
X133923072Y-65810000D01*
X133923072Y-65110000D01*
X133910812Y-64985518D01*
X133874502Y-64865820D01*
X133852683Y-64825000D01*
X133874502Y-64784180D01*
X133910812Y-64664482D01*
X133912302Y-64649349D01*
X135999846Y-66736893D01*
X136022862Y-66764938D01*
X136134780Y-66856787D01*
X136262467Y-66925037D01*
X136358986Y-66954316D01*
X136401014Y-66967065D01*
X136545099Y-66981256D01*
X136581204Y-66977700D01*
X137496910Y-66977700D01*
X137445000Y-67238665D01*
X137445000Y-67521335D01*
X137500147Y-67798574D01*
X137608320Y-68059727D01*
X137765363Y-68294759D01*
X137965241Y-68494637D01*
X138197759Y-68650000D01*
X137965241Y-68805363D01*
X137765363Y-69005241D01*
X137608320Y-69240273D01*
X137500147Y-69501426D01*
X137445000Y-69778665D01*
X137445000Y-70061335D01*
X137500147Y-70338574D01*
X137608320Y-70599727D01*
X137765363Y-70834759D01*
X137965241Y-71034637D01*
X138197759Y-71190000D01*
X137965241Y-71345363D01*
X137765363Y-71545241D01*
X137608320Y-71780273D01*
X137500147Y-72041426D01*
X137445000Y-72318665D01*
X137445000Y-72601335D01*
X137500147Y-72878574D01*
X137608320Y-73139727D01*
X137620997Y-73158700D01*
X132187996Y-73158700D01*
X132151899Y-73155145D01*
X132115802Y-73158700D01*
X132115795Y-73158700D01*
X132022032Y-73167935D01*
X132007814Y-73169335D01*
X131977882Y-73178415D01*
X131869267Y-73211363D01*
X131798072Y-73249417D01*
X131798072Y-72798072D01*
X133285000Y-72798072D01*
X133409482Y-72785812D01*
X133529180Y-72749502D01*
X133639494Y-72690537D01*
X133736185Y-72611185D01*
X133815537Y-72514494D01*
X133874502Y-72404180D01*
X133910812Y-72284482D01*
X133923072Y-72160000D01*
X133923072Y-71460000D01*
X133910812Y-71335518D01*
X133874502Y-71215820D01*
X133852683Y-71175000D01*
X133874502Y-71134180D01*
X133910812Y-71014482D01*
X133923072Y-70890000D01*
X133923072Y-70190000D01*
X133910812Y-70065518D01*
X133874502Y-69945820D01*
X133852683Y-69905000D01*
X133874502Y-69864180D01*
X133910812Y-69744482D01*
X133923072Y-69620000D01*
X133920000Y-69555750D01*
X133761250Y-69397000D01*
X132449500Y-69397000D01*
X132449500Y-69417000D01*
X132195500Y-69417000D01*
X132195500Y-69397000D01*
X130883750Y-69397000D01*
X130725000Y-69555750D01*
X130721928Y-69620000D01*
X130734188Y-69744482D01*
X130770498Y-69864180D01*
X130792317Y-69905000D01*
X130770498Y-69945820D01*
X130734188Y-70065518D01*
X130721928Y-70190000D01*
X130721928Y-70890000D01*
X130734188Y-71014482D01*
X130770498Y-71134180D01*
X130792317Y-71175000D01*
X130770498Y-71215820D01*
X130734188Y-71335518D01*
X130721928Y-71460000D01*
X130721928Y-71721928D01*
X130460000Y-71721928D01*
X130335518Y-71734188D01*
X130215820Y-71770498D01*
X130175000Y-71792317D01*
X130134180Y-71770498D01*
X130014482Y-71734188D01*
X129890000Y-71721928D01*
X129665482Y-71721928D01*
X129693589Y-71710286D01*
X129846728Y-71607962D01*
X129976962Y-71477728D01*
X130079286Y-71324589D01*
X130149768Y-71154429D01*
X130185700Y-70973789D01*
X130185700Y-70789611D01*
X130149768Y-70608971D01*
X130079286Y-70438811D01*
X129976962Y-70285672D01*
X129896112Y-70204822D01*
X129948586Y-70126289D01*
X130019068Y-69956129D01*
X130055000Y-69775489D01*
X130055000Y-69591311D01*
X130019068Y-69410671D01*
X129948586Y-69240511D01*
X129846262Y-69087372D01*
X129716028Y-68957138D01*
X129562889Y-68854814D01*
X129392729Y-68784332D01*
X129212089Y-68748400D01*
X129027911Y-68748400D01*
X128847271Y-68784332D01*
X128677111Y-68854814D01*
X128536900Y-68948500D01*
X126872294Y-68948500D01*
X126836199Y-68944945D01*
X126800104Y-68948500D01*
X126800095Y-68948500D01*
X126692115Y-68959135D01*
X126553567Y-69001163D01*
X126425880Y-69069413D01*
X126313962Y-69161262D01*
X126290946Y-69189307D01*
X123965808Y-71514446D01*
X123937763Y-71537462D01*
X123845914Y-71649380D01*
X123800583Y-71734188D01*
X123781594Y-71769714D01*
X123664482Y-71734188D01*
X123540000Y-71721928D01*
X123278072Y-71721928D01*
X123278072Y-71460000D01*
X123265812Y-71335518D01*
X123229502Y-71215820D01*
X123207683Y-71175000D01*
X123229502Y-71134180D01*
X123265812Y-71014482D01*
X123278072Y-70890000D01*
X123278072Y-70190000D01*
X123265812Y-70065518D01*
X123229502Y-69945820D01*
X123207683Y-69905000D01*
X123229502Y-69864180D01*
X123265812Y-69744482D01*
X123278072Y-69620000D01*
X123278072Y-68920000D01*
X123265812Y-68795518D01*
X123247454Y-68735000D01*
X123417049Y-68735000D01*
X123557111Y-68828586D01*
X123727271Y-68899068D01*
X123907911Y-68935000D01*
X124092089Y-68935000D01*
X124272729Y-68899068D01*
X124442889Y-68828586D01*
X124596028Y-68726262D01*
X124726262Y-68596028D01*
X124828586Y-68442889D01*
X124899068Y-68272729D01*
X124935000Y-68092089D01*
X124935000Y-67907911D01*
X124899068Y-67727271D01*
X124828586Y-67557111D01*
X124726262Y-67403972D01*
X124596028Y-67273738D01*
X124442889Y-67171414D01*
X124272729Y-67100932D01*
X124092089Y-67065000D01*
X123907911Y-67065000D01*
X123727271Y-67100932D01*
X123557111Y-67171414D01*
X123417049Y-67265000D01*
X123247454Y-67265000D01*
X123265812Y-67204482D01*
X123278072Y-67080000D01*
X123278072Y-66380000D01*
X123265812Y-66255518D01*
X123229502Y-66135820D01*
X123207683Y-66095000D01*
X123229502Y-66054180D01*
X123265812Y-65934482D01*
X123278072Y-65810000D01*
X123278072Y-65110000D01*
X123265812Y-64985518D01*
X123229502Y-64865820D01*
X123207683Y-64825000D01*
X123229502Y-64784180D01*
X123265812Y-64664482D01*
X123278072Y-64540000D01*
X123278072Y-64278072D01*
X123540000Y-64278072D01*
X123664482Y-64265812D01*
X123784180Y-64229502D01*
X123825000Y-64207683D01*
X123865820Y-64229502D01*
X123985518Y-64265812D01*
X124110000Y-64278072D01*
X124810000Y-64278072D01*
X124934482Y-64265812D01*
X124993623Y-64247872D01*
X124991444Y-64270000D01*
X125005635Y-64414085D01*
X125023182Y-64471928D01*
X125047664Y-64552633D01*
X125115914Y-64680320D01*
X125207763Y-64792238D01*
X125235808Y-64815254D01*
X125268068Y-64847514D01*
X125300932Y-65012729D01*
X125371414Y-65182889D01*
X125473738Y-65336028D01*
X125603972Y-65466262D01*
X125757111Y-65568586D01*
X125927271Y-65639068D01*
X126107911Y-65675000D01*
X126292089Y-65675000D01*
X126472729Y-65639068D01*
X126642889Y-65568586D01*
X126796028Y-65466262D01*
X126926262Y-65336028D01*
X127028586Y-65182889D01*
X127099068Y-65012729D01*
X127135000Y-64832089D01*
X127135000Y-64647911D01*
X127099068Y-64467271D01*
X127028586Y-64297111D01*
X127015865Y-64278072D01*
X127350000Y-64278072D01*
X127474482Y-64265812D01*
X127594180Y-64229502D01*
X127635000Y-64207683D01*
X127675820Y-64229502D01*
X127795518Y-64265812D01*
X127920000Y-64278072D01*
X128620000Y-64278072D01*
X128744482Y-64265812D01*
X128864180Y-64229502D01*
X128905000Y-64207683D01*
X128945820Y-64229502D01*
X129065518Y-64265812D01*
X129190000Y-64278072D01*
X129890000Y-64278072D01*
X130014482Y-64265812D01*
X130134180Y-64229502D01*
X130175000Y-64207683D01*
X130215820Y-64229502D01*
D17*
G36*
X140273738Y-78096028D02*
G01*
X140403972Y-78226262D01*
X140557111Y-78328586D01*
X140727271Y-78399068D01*
X140907911Y-78435000D01*
X141092089Y-78435000D01*
X141272729Y-78399068D01*
X141442889Y-78328586D01*
X141568506Y-78244652D01*
X145242662Y-81918809D01*
X145228320Y-81940273D01*
X145120147Y-82201426D01*
X145065000Y-82478665D01*
X145065000Y-82761335D01*
X145120147Y-83038574D01*
X145228320Y-83299727D01*
X145385363Y-83534759D01*
X145585241Y-83734637D01*
X145817759Y-83890000D01*
X145585241Y-84045363D01*
X145385363Y-84245241D01*
X145228320Y-84480273D01*
X145120147Y-84741426D01*
X145065000Y-85018665D01*
X145065000Y-85301335D01*
X145120147Y-85578574D01*
X145228320Y-85839727D01*
X145385363Y-86074759D01*
X145583961Y-86273357D01*
X145575518Y-86274188D01*
X145455820Y-86310498D01*
X145345506Y-86369463D01*
X145248815Y-86448815D01*
X145169463Y-86545506D01*
X145110498Y-86655820D01*
X145074188Y-86775518D01*
X145061928Y-86900000D01*
X145061928Y-88500000D01*
X145074188Y-88624482D01*
X145110498Y-88744180D01*
X145161716Y-88840000D01*
X139756801Y-88840000D01*
X139794759Y-88814637D01*
X139994637Y-88614759D01*
X140151680Y-88379727D01*
X140259853Y-88118574D01*
X140315000Y-87841335D01*
X140315000Y-87558665D01*
X140259853Y-87281426D01*
X140151680Y-87020273D01*
X139994637Y-86785241D01*
X139978271Y-86768875D01*
X140483693Y-86263454D01*
X140511738Y-86240438D01*
X140603587Y-86128520D01*
X140671837Y-86000833D01*
X140713865Y-85862285D01*
X140724500Y-85754305D01*
X140724500Y-85754296D01*
X140728055Y-85718201D01*
X140724500Y-85682106D01*
X140724500Y-79668305D01*
X140728056Y-79632200D01*
X140713865Y-79488115D01*
X140671837Y-79349566D01*
X140603587Y-79221880D01*
X140534753Y-79138006D01*
X140534750Y-79138003D01*
X140511737Y-79109962D01*
X140483697Y-79086950D01*
X139923071Y-78526325D01*
X139994637Y-78454759D01*
X140151680Y-78219727D01*
X140230020Y-78030599D01*
X140273738Y-78096028D01*
G37*
X140273738Y-78096028D02*
X140403972Y-78226262D01*
X140557111Y-78328586D01*
X140727271Y-78399068D01*
X140907911Y-78435000D01*
X141092089Y-78435000D01*
X141272729Y-78399068D01*
X141442889Y-78328586D01*
X141568506Y-78244652D01*
X145242662Y-81918809D01*
X145228320Y-81940273D01*
X145120147Y-82201426D01*
X145065000Y-82478665D01*
X145065000Y-82761335D01*
X145120147Y-83038574D01*
X145228320Y-83299727D01*
X145385363Y-83534759D01*
X145585241Y-83734637D01*
X145817759Y-83890000D01*
X145585241Y-84045363D01*
X145385363Y-84245241D01*
X145228320Y-84480273D01*
X145120147Y-84741426D01*
X145065000Y-85018665D01*
X145065000Y-85301335D01*
X145120147Y-85578574D01*
X145228320Y-85839727D01*
X145385363Y-86074759D01*
X145583961Y-86273357D01*
X145575518Y-86274188D01*
X145455820Y-86310498D01*
X145345506Y-86369463D01*
X145248815Y-86448815D01*
X145169463Y-86545506D01*
X145110498Y-86655820D01*
X145074188Y-86775518D01*
X145061928Y-86900000D01*
X145061928Y-88500000D01*
X145074188Y-88624482D01*
X145110498Y-88744180D01*
X145161716Y-88840000D01*
X139756801Y-88840000D01*
X139794759Y-88814637D01*
X139994637Y-88614759D01*
X140151680Y-88379727D01*
X140259853Y-88118574D01*
X140315000Y-87841335D01*
X140315000Y-87558665D01*
X140259853Y-87281426D01*
X140151680Y-87020273D01*
X139994637Y-86785241D01*
X139978271Y-86768875D01*
X140483693Y-86263454D01*
X140511738Y-86240438D01*
X140603587Y-86128520D01*
X140671837Y-86000833D01*
X140713865Y-85862285D01*
X140724500Y-85754305D01*
X140724500Y-85754296D01*
X140728055Y-85718201D01*
X140724500Y-85682106D01*
X140724500Y-79668305D01*
X140728056Y-79632200D01*
X140713865Y-79488115D01*
X140671837Y-79349566D01*
X140603587Y-79221880D01*
X140534753Y-79138006D01*
X140534750Y-79138003D01*
X140511737Y-79109962D01*
X140483697Y-79086950D01*
X139923071Y-78526325D01*
X139994637Y-78454759D01*
X140151680Y-78219727D01*
X140230020Y-78030599D01*
X140273738Y-78096028D01*
G36*
X138169195Y-86410914D02*
G01*
X138160000Y-86441225D01*
X138160000Y-86404771D01*
X138169195Y-86410914D01*
G37*
X138169195Y-86410914D02*
X138160000Y-86441225D01*
X138160000Y-86404771D01*
X138169195Y-86410914D01*
G36*
X147340001Y-83995411D02*
G01*
X147182241Y-83890000D01*
X147340001Y-83784589D01*
X147340001Y-83995411D01*
G37*
X147340001Y-83995411D02*
X147182241Y-83890000D01*
X147340001Y-83784589D01*
X147340001Y-83995411D01*
G36*
X138197759Y-83890000D02*
G01*
X138160000Y-83915229D01*
X138160000Y-83864771D01*
X138197759Y-83890000D01*
G37*
X138197759Y-83890000D02*
X138160000Y-83915229D01*
X138160000Y-83864771D01*
X138197759Y-83890000D01*
G36*
X147340001Y-81455411D02*
G01*
X147224632Y-81378324D01*
X147224365Y-81375615D01*
X147210805Y-81330914D01*
X147340001Y-81244589D01*
X147340001Y-81455411D01*
G37*
X147340001Y-81455411D02*
X147224632Y-81378324D01*
X147224365Y-81375615D01*
X147210805Y-81330914D01*
X147340001Y-81244589D01*
X147340001Y-81455411D01*
G36*
X138197759Y-81350000D02*
G01*
X138160000Y-81375229D01*
X138160000Y-81324771D01*
X138197759Y-81350000D01*
G37*
X138197759Y-81350000D02*
X138160000Y-81375229D01*
X138160000Y-81324771D01*
X138197759Y-81350000D01*
G36*
X145228320Y-78219727D02*
G01*
X145385363Y-78454759D01*
X145585241Y-78654637D01*
X145817759Y-78810000D01*
X145585241Y-78965363D01*
X145525025Y-79025579D01*
X144861673Y-78362226D01*
X144942889Y-78328586D01*
X145096028Y-78226262D01*
X145191487Y-78130803D01*
X145228320Y-78219727D01*
G37*
X145228320Y-78219727D02*
X145385363Y-78454759D01*
X145585241Y-78654637D01*
X145817759Y-78810000D01*
X145585241Y-78965363D01*
X145525025Y-79025579D01*
X144861673Y-78362226D01*
X144942889Y-78328586D01*
X145096028Y-78226262D01*
X145191487Y-78130803D01*
X145228320Y-78219727D01*
G36*
X147340001Y-78915411D02*
G01*
X147182241Y-78810000D01*
X147340001Y-78704589D01*
X147340001Y-78915411D01*
G37*
X147340001Y-78915411D02*
X147182241Y-78810000D01*
X147340001Y-78704589D01*
X147340001Y-78915411D01*
G36*
X144854446Y-70414193D02*
G01*
X144877462Y-70442238D01*
X144905506Y-70465253D01*
X144989380Y-70534087D01*
X145117066Y-70602337D01*
X145255615Y-70644365D01*
X145258324Y-70644632D01*
X145385363Y-70834759D01*
X145585241Y-71034637D01*
X145817759Y-71190000D01*
X145585241Y-71345363D01*
X145385363Y-71545241D01*
X145228320Y-71780273D01*
X145120147Y-72041426D01*
X145065000Y-72318665D01*
X145065000Y-72601335D01*
X145120147Y-72878574D01*
X145228320Y-73139727D01*
X145385363Y-73374759D01*
X145585241Y-73574637D01*
X145817759Y-73730000D01*
X145585241Y-73885363D01*
X145385363Y-74085241D01*
X145228320Y-74320273D01*
X145120147Y-74581426D01*
X145065000Y-74858665D01*
X145065000Y-75141335D01*
X145120147Y-75418574D01*
X145228320Y-75679727D01*
X145385363Y-75914759D01*
X145585241Y-76114637D01*
X145817759Y-76270000D01*
X145585241Y-76425363D01*
X145385363Y-76625241D01*
X145228320Y-76860273D01*
X145214918Y-76892628D01*
X145096028Y-76773738D01*
X144942889Y-76671414D01*
X144772729Y-76600932D01*
X144592089Y-76565000D01*
X144407911Y-76565000D01*
X144227271Y-76600932D01*
X144057111Y-76671414D01*
X143903972Y-76773738D01*
X143773738Y-76903972D01*
X143671414Y-77057111D01*
X143637774Y-77138327D01*
X139934421Y-73434975D01*
X139994637Y-73374759D01*
X140151680Y-73139727D01*
X140259853Y-72878574D01*
X140315000Y-72601335D01*
X140315000Y-72318665D01*
X140259853Y-72041426D01*
X140151680Y-71780273D01*
X139994637Y-71545241D01*
X139794759Y-71345363D01*
X139562241Y-71190000D01*
X139794759Y-71034637D01*
X139994637Y-70834759D01*
X140151680Y-70599727D01*
X140259853Y-70338574D01*
X140315000Y-70061335D01*
X140315000Y-69778665D01*
X140259853Y-69501426D01*
X140151680Y-69240273D01*
X139994637Y-69005241D01*
X139794759Y-68805363D01*
X139562241Y-68650000D01*
X139794759Y-68494637D01*
X139994637Y-68294759D01*
X140151680Y-68059727D01*
X140259853Y-67798574D01*
X140315000Y-67521335D01*
X140315000Y-67238665D01*
X140263090Y-66977700D01*
X141417954Y-66977700D01*
X144854446Y-70414193D01*
G37*
X144854446Y-70414193D02*
X144877462Y-70442238D01*
X144905506Y-70465253D01*
X144989380Y-70534087D01*
X145117066Y-70602337D01*
X145255615Y-70644365D01*
X145258324Y-70644632D01*
X145385363Y-70834759D01*
X145585241Y-71034637D01*
X145817759Y-71190000D01*
X145585241Y-71345363D01*
X145385363Y-71545241D01*
X145228320Y-71780273D01*
X145120147Y-72041426D01*
X145065000Y-72318665D01*
X145065000Y-72601335D01*
X145120147Y-72878574D01*
X145228320Y-73139727D01*
X145385363Y-73374759D01*
X145585241Y-73574637D01*
X145817759Y-73730000D01*
X145585241Y-73885363D01*
X145385363Y-74085241D01*
X145228320Y-74320273D01*
X145120147Y-74581426D01*
X145065000Y-74858665D01*
X145065000Y-75141335D01*
X145120147Y-75418574D01*
X145228320Y-75679727D01*
X145385363Y-75914759D01*
X145585241Y-76114637D01*
X145817759Y-76270000D01*
X145585241Y-76425363D01*
X145385363Y-76625241D01*
X145228320Y-76860273D01*
X145214918Y-76892628D01*
X145096028Y-76773738D01*
X144942889Y-76671414D01*
X144772729Y-76600932D01*
X144592089Y-76565000D01*
X144407911Y-76565000D01*
X144227271Y-76600932D01*
X144057111Y-76671414D01*
X143903972Y-76773738D01*
X143773738Y-76903972D01*
X143671414Y-77057111D01*
X143637774Y-77138327D01*
X139934421Y-73434975D01*
X139994637Y-73374759D01*
X140151680Y-73139727D01*
X140259853Y-72878574D01*
X140315000Y-72601335D01*
X140315000Y-72318665D01*
X140259853Y-72041426D01*
X140151680Y-71780273D01*
X139994637Y-71545241D01*
X139794759Y-71345363D01*
X139562241Y-71190000D01*
X139794759Y-71034637D01*
X139994637Y-70834759D01*
X140151680Y-70599727D01*
X140259853Y-70338574D01*
X140315000Y-70061335D01*
X140315000Y-69778665D01*
X140259853Y-69501426D01*
X140151680Y-69240273D01*
X139994637Y-69005241D01*
X139794759Y-68805363D01*
X139562241Y-68650000D01*
X139794759Y-68494637D01*
X139994637Y-68294759D01*
X140151680Y-68059727D01*
X140259853Y-67798574D01*
X140315000Y-67521335D01*
X140315000Y-67238665D01*
X140263090Y-66977700D01*
X141417954Y-66977700D01*
X144854446Y-70414193D01*
G36*
X140255348Y-76931494D02*
G01*
X140209563Y-77000016D01*
X140152934Y-76863300D01*
X140187154Y-76863300D01*
X140255348Y-76931494D01*
G37*
X140255348Y-76931494D02*
X140209563Y-77000016D01*
X140152934Y-76863300D01*
X140187154Y-76863300D01*
X140255348Y-76931494D01*
G36*
X147340000Y-76375411D02*
G01*
X147182241Y-76270000D01*
X147340000Y-76164589D01*
X147340000Y-76375411D01*
G37*
X147340000Y-76375411D02*
X147182241Y-76270000D01*
X147340000Y-76164589D01*
X147340000Y-76375411D01*
G36*
X137445000Y-74858665D02*
G01*
X137445000Y-75141335D01*
X137485677Y-75345830D01*
X136768546Y-74628700D01*
X137490743Y-74628700D01*
X137445000Y-74858665D01*
G37*
X137445000Y-74858665D02*
X137445000Y-75141335D01*
X137485677Y-75345830D01*
X136768546Y-74628700D01*
X137490743Y-74628700D01*
X137445000Y-74858665D01*
G36*
X125115914Y-74995620D02*
G01*
X125207763Y-75107538D01*
X125235807Y-75130553D01*
X125445254Y-75340000D01*
X124215000Y-75340000D01*
X124215000Y-75277911D01*
X124179068Y-75097271D01*
X124108586Y-74927111D01*
X124105598Y-74922638D01*
X124110000Y-74923072D01*
X124810000Y-74923072D01*
X124934482Y-74910812D01*
X125051594Y-74875286D01*
X125115914Y-74995620D01*
G37*
X125115914Y-74995620D02*
X125207763Y-75107538D01*
X125235807Y-75130553D01*
X125445254Y-75340000D01*
X124215000Y-75340000D01*
X124215000Y-75277911D01*
X124179068Y-75097271D01*
X124108586Y-74927111D01*
X124105598Y-74922638D01*
X124110000Y-74923072D01*
X124810000Y-74923072D01*
X124934482Y-74910812D01*
X125051594Y-74875286D01*
X125115914Y-74995620D01*
G36*
X127775808Y-60869446D02*
G01*
X127747763Y-60892462D01*
X127655914Y-61004380D01*
X127610583Y-61089188D01*
X127591594Y-61124714D01*
X127474482Y-61089188D01*
X127350000Y-61076928D01*
X126650000Y-61076928D01*
X126525518Y-61089188D01*
X126405820Y-61125498D01*
X126365000Y-61147317D01*
X126324180Y-61125498D01*
X126204482Y-61089188D01*
X126080000Y-61076928D01*
X125380000Y-61076928D01*
X125255518Y-61089188D01*
X125135820Y-61125498D01*
X125095000Y-61147317D01*
X125054180Y-61125498D01*
X124934482Y-61089188D01*
X124810000Y-61076928D01*
X124110000Y-61076928D01*
X123985518Y-61089188D01*
X123865820Y-61125498D01*
X123825000Y-61147317D01*
X123784180Y-61125498D01*
X123664482Y-61089188D01*
X123540000Y-61076928D01*
X122840000Y-61076928D01*
X122715518Y-61089188D01*
X122595820Y-61125498D01*
X122485506Y-61184463D01*
X122388815Y-61263815D01*
X122309463Y-61360506D01*
X122250498Y-61470820D01*
X122214188Y-61590518D01*
X122201928Y-61715000D01*
X122201928Y-63201928D01*
X120715000Y-63201928D01*
X120590518Y-63214188D01*
X120470820Y-63250498D01*
X120360506Y-63309463D01*
X120263815Y-63388815D01*
X120184463Y-63485506D01*
X120125498Y-63595820D01*
X120089188Y-63715518D01*
X120076928Y-63840000D01*
X120076928Y-64540000D01*
X120089188Y-64664482D01*
X120125498Y-64784180D01*
X120147317Y-64825000D01*
X120125498Y-64865820D01*
X120089188Y-64985518D01*
X120076928Y-65110000D01*
X120076928Y-65810000D01*
X120089188Y-65934482D01*
X120125498Y-66054180D01*
X120147317Y-66095000D01*
X120125498Y-66135820D01*
X120089188Y-66255518D01*
X120076928Y-66380000D01*
X120076928Y-67080000D01*
X120089188Y-67204482D01*
X120125498Y-67324180D01*
X120147317Y-67365000D01*
X120125498Y-67405820D01*
X120089188Y-67525518D01*
X120076928Y-67650000D01*
X120076928Y-68350000D01*
X120089188Y-68474482D01*
X120125498Y-68594180D01*
X120147317Y-68635000D01*
X120125498Y-68675820D01*
X120089188Y-68795518D01*
X120076928Y-68920000D01*
X120076928Y-69620000D01*
X120089188Y-69744482D01*
X120125498Y-69864180D01*
X120147317Y-69905000D01*
X120125498Y-69945820D01*
X120089188Y-70065518D01*
X120076928Y-70190000D01*
X120076928Y-70890000D01*
X120089188Y-71014482D01*
X120125498Y-71134180D01*
X120147317Y-71175000D01*
X120125498Y-71215820D01*
X120089188Y-71335518D01*
X120076928Y-71460000D01*
X120076928Y-72160000D01*
X120089188Y-72284482D01*
X120125498Y-72404180D01*
X120184463Y-72514494D01*
X120263815Y-72611185D01*
X120360506Y-72690537D01*
X120470820Y-72749502D01*
X120590518Y-72785812D01*
X120715000Y-72798072D01*
X122201928Y-72798072D01*
X122201928Y-74285000D01*
X122214188Y-74409482D01*
X122250498Y-74529180D01*
X122309463Y-74639494D01*
X122388815Y-74736185D01*
X122485506Y-74815537D01*
X122492982Y-74819533D01*
X122502447Y-74850735D01*
X122451414Y-74927111D01*
X122380932Y-75097271D01*
X122345000Y-75277911D01*
X122345000Y-75340000D01*
X119660000Y-75340000D01*
X119660000Y-60660000D01*
X127985254Y-60660000D01*
X127775808Y-60869446D01*
G37*
X127775808Y-60869446D02*
X127747763Y-60892462D01*
X127655914Y-61004380D01*
X127610583Y-61089188D01*
X127591594Y-61124714D01*
X127474482Y-61089188D01*
X127350000Y-61076928D01*
X126650000Y-61076928D01*
X126525518Y-61089188D01*
X126405820Y-61125498D01*
X126365000Y-61147317D01*
X126324180Y-61125498D01*
X126204482Y-61089188D01*
X126080000Y-61076928D01*
X125380000Y-61076928D01*
X125255518Y-61089188D01*
X125135820Y-61125498D01*
X125095000Y-61147317D01*
X125054180Y-61125498D01*
X124934482Y-61089188D01*
X124810000Y-61076928D01*
X124110000Y-61076928D01*
X123985518Y-61089188D01*
X123865820Y-61125498D01*
X123825000Y-61147317D01*
X123784180Y-61125498D01*
X123664482Y-61089188D01*
X123540000Y-61076928D01*
X122840000Y-61076928D01*
X122715518Y-61089188D01*
X122595820Y-61125498D01*
X122485506Y-61184463D01*
X122388815Y-61263815D01*
X122309463Y-61360506D01*
X122250498Y-61470820D01*
X122214188Y-61590518D01*
X122201928Y-61715000D01*
X122201928Y-63201928D01*
X120715000Y-63201928D01*
X120590518Y-63214188D01*
X120470820Y-63250498D01*
X120360506Y-63309463D01*
X120263815Y-63388815D01*
X120184463Y-63485506D01*
X120125498Y-63595820D01*
X120089188Y-63715518D01*
X120076928Y-63840000D01*
X120076928Y-64540000D01*
X120089188Y-64664482D01*
X120125498Y-64784180D01*
X120147317Y-64825000D01*
X120125498Y-64865820D01*
X120089188Y-64985518D01*
X120076928Y-65110000D01*
X120076928Y-65810000D01*
X120089188Y-65934482D01*
X120125498Y-66054180D01*
X120147317Y-66095000D01*
X120125498Y-66135820D01*
X120089188Y-66255518D01*
X120076928Y-66380000D01*
X120076928Y-67080000D01*
X120089188Y-67204482D01*
X120125498Y-67324180D01*
X120147317Y-67365000D01*
X120125498Y-67405820D01*
X120089188Y-67525518D01*
X120076928Y-67650000D01*
X120076928Y-68350000D01*
X120089188Y-68474482D01*
X120125498Y-68594180D01*
X120147317Y-68635000D01*
X120125498Y-68675820D01*
X120089188Y-68795518D01*
X120076928Y-68920000D01*
X120076928Y-69620000D01*
X120089188Y-69744482D01*
X120125498Y-69864180D01*
X120147317Y-69905000D01*
X120125498Y-69945820D01*
X120089188Y-70065518D01*
X120076928Y-70190000D01*
X120076928Y-70890000D01*
X120089188Y-71014482D01*
X120125498Y-71134180D01*
X120147317Y-71175000D01*
X120125498Y-71215820D01*
X120089188Y-71335518D01*
X120076928Y-71460000D01*
X120076928Y-72160000D01*
X120089188Y-72284482D01*
X120125498Y-72404180D01*
X120184463Y-72514494D01*
X120263815Y-72611185D01*
X120360506Y-72690537D01*
X120470820Y-72749502D01*
X120590518Y-72785812D01*
X120715000Y-72798072D01*
X122201928Y-72798072D01*
X122201928Y-74285000D01*
X122214188Y-74409482D01*
X122250498Y-74529180D01*
X122309463Y-74639494D01*
X122388815Y-74736185D01*
X122485506Y-74815537D01*
X122492982Y-74819533D01*
X122502447Y-74850735D01*
X122451414Y-74927111D01*
X122380932Y-75097271D01*
X122345000Y-75277911D01*
X122345000Y-75340000D01*
X119660000Y-75340000D01*
X119660000Y-60660000D01*
X127985254Y-60660000D01*
X127775808Y-60869446D01*
G36*
X147340000Y-73835411D02*
G01*
X147182241Y-73730000D01*
X147340000Y-73624589D01*
X147340000Y-73835411D01*
G37*
X147340000Y-73835411D02*
X147182241Y-73730000D01*
X147340000Y-73624589D01*
X147340000Y-73835411D01*
G36*
X135999846Y-66736893D02*
G01*
X136022862Y-66764938D01*
X136134780Y-66856787D01*
X136262467Y-66925037D01*
X136358986Y-66954316D01*
X136401014Y-66967065D01*
X136545099Y-66981256D01*
X136581204Y-66977700D01*
X137496910Y-66977700D01*
X137445000Y-67238665D01*
X137445000Y-67521335D01*
X137500147Y-67798574D01*
X137608320Y-68059727D01*
X137765363Y-68294759D01*
X137965241Y-68494637D01*
X138197759Y-68650000D01*
X137965241Y-68805363D01*
X137765363Y-69005241D01*
X137608320Y-69240273D01*
X137500147Y-69501426D01*
X137445000Y-69778665D01*
X137445000Y-70061335D01*
X137500147Y-70338574D01*
X137608320Y-70599727D01*
X137765363Y-70834759D01*
X137965241Y-71034637D01*
X138197759Y-71190000D01*
X137965241Y-71345363D01*
X137765363Y-71545241D01*
X137608320Y-71780273D01*
X137500147Y-72041426D01*
X137445000Y-72318665D01*
X137445000Y-72601335D01*
X137500147Y-72878574D01*
X137608320Y-73139727D01*
X137620997Y-73158700D01*
X132187996Y-73158700D01*
X132151899Y-73155145D01*
X132115802Y-73158700D01*
X132115795Y-73158700D01*
X132022032Y-73167935D01*
X132007814Y-73169335D01*
X131977882Y-73178415D01*
X131869267Y-73211363D01*
X131798072Y-73249417D01*
X131798072Y-72798072D01*
X133285000Y-72798072D01*
X133409482Y-72785812D01*
X133529180Y-72749502D01*
X133639494Y-72690537D01*
X133736185Y-72611185D01*
X133815537Y-72514494D01*
X133874502Y-72404180D01*
X133910812Y-72284482D01*
X133923072Y-72160000D01*
X133923072Y-71460000D01*
X133910812Y-71335518D01*
X133874502Y-71215820D01*
X133852683Y-71175000D01*
X133874502Y-71134180D01*
X133910812Y-71014482D01*
X133923072Y-70890000D01*
X133923072Y-70190000D01*
X133910812Y-70065518D01*
X133874502Y-69945820D01*
X133852683Y-69905000D01*
X133874502Y-69864180D01*
X133910812Y-69744482D01*
X133923072Y-69620000D01*
X133923072Y-68920000D01*
X133910812Y-68795518D01*
X133874502Y-68675820D01*
X133852683Y-68635000D01*
X133874502Y-68594180D01*
X133910812Y-68474482D01*
X133923072Y-68350000D01*
X133923072Y-67650000D01*
X133910812Y-67525518D01*
X133874502Y-67405820D01*
X133852683Y-67365000D01*
X133874502Y-67324180D01*
X133910812Y-67204482D01*
X133923072Y-67080000D01*
X133923072Y-66380000D01*
X133910812Y-66255518D01*
X133874502Y-66135820D01*
X133852683Y-66095000D01*
X133874502Y-66054180D01*
X133910812Y-65934482D01*
X133923072Y-65810000D01*
X133923072Y-65110000D01*
X133910812Y-64985518D01*
X133874502Y-64865820D01*
X133852683Y-64825000D01*
X133874502Y-64784180D01*
X133910812Y-64664482D01*
X133912302Y-64649349D01*
X135999846Y-66736893D01*
G37*
X135999846Y-66736893D02*
X136022862Y-66764938D01*
X136134780Y-66856787D01*
X136262467Y-66925037D01*
X136358986Y-66954316D01*
X136401014Y-66967065D01*
X136545099Y-66981256D01*
X136581204Y-66977700D01*
X137496910Y-66977700D01*
X137445000Y-67238665D01*
X137445000Y-67521335D01*
X137500147Y-67798574D01*
X137608320Y-68059727D01*
X137765363Y-68294759D01*
X137965241Y-68494637D01*
X138197759Y-68650000D01*
X137965241Y-68805363D01*
X137765363Y-69005241D01*
X137608320Y-69240273D01*
X137500147Y-69501426D01*
X137445000Y-69778665D01*
X137445000Y-70061335D01*
X137500147Y-70338574D01*
X137608320Y-70599727D01*
X137765363Y-70834759D01*
X137965241Y-71034637D01*
X138197759Y-71190000D01*
X137965241Y-71345363D01*
X137765363Y-71545241D01*
X137608320Y-71780273D01*
X137500147Y-72041426D01*
X137445000Y-72318665D01*
X137445000Y-72601335D01*
X137500147Y-72878574D01*
X137608320Y-73139727D01*
X137620997Y-73158700D01*
X132187996Y-73158700D01*
X132151899Y-73155145D01*
X132115802Y-73158700D01*
X132115795Y-73158700D01*
X132022032Y-73167935D01*
X132007814Y-73169335D01*
X131977882Y-73178415D01*
X131869267Y-73211363D01*
X131798072Y-73249417D01*
X131798072Y-72798072D01*
X133285000Y-72798072D01*
X133409482Y-72785812D01*
X133529180Y-72749502D01*
X133639494Y-72690537D01*
X133736185Y-72611185D01*
X133815537Y-72514494D01*
X133874502Y-72404180D01*
X133910812Y-72284482D01*
X133923072Y-72160000D01*
X133923072Y-71460000D01*
X133910812Y-71335518D01*
X133874502Y-71215820D01*
X133852683Y-71175000D01*
X133874502Y-71134180D01*
X133910812Y-71014482D01*
X133923072Y-70890000D01*
X133923072Y-70190000D01*
X133910812Y-70065518D01*
X133874502Y-69945820D01*
X133852683Y-69905000D01*
X133874502Y-69864180D01*
X133910812Y-69744482D01*
X133923072Y-69620000D01*
X133923072Y-68920000D01*
X133910812Y-68795518D01*
X133874502Y-68675820D01*
X133852683Y-68635000D01*
X133874502Y-68594180D01*
X133910812Y-68474482D01*
X133923072Y-68350000D01*
X133923072Y-67650000D01*
X133910812Y-67525518D01*
X133874502Y-67405820D01*
X133852683Y-67365000D01*
X133874502Y-67324180D01*
X133910812Y-67204482D01*
X133923072Y-67080000D01*
X133923072Y-66380000D01*
X133910812Y-66255518D01*
X133874502Y-66135820D01*
X133852683Y-66095000D01*
X133874502Y-66054180D01*
X133910812Y-65934482D01*
X133923072Y-65810000D01*
X133923072Y-65110000D01*
X133910812Y-64985518D01*
X133874502Y-64865820D01*
X133852683Y-64825000D01*
X133874502Y-64784180D01*
X133910812Y-64664482D01*
X133912302Y-64649349D01*
X135999846Y-66736893D01*
G36*
X130215820Y-64229502D02*
G01*
X130335518Y-64265812D01*
X130460000Y-64278072D01*
X130721928Y-64278072D01*
X130721928Y-64540000D01*
X130734188Y-64664482D01*
X130770498Y-64784180D01*
X130792317Y-64825000D01*
X130770498Y-64865820D01*
X130734188Y-64985518D01*
X130721928Y-65110000D01*
X130721928Y-65810000D01*
X130734188Y-65934482D01*
X130770498Y-66054180D01*
X130792317Y-66095000D01*
X130770498Y-66135820D01*
X130734188Y-66255518D01*
X130721928Y-66380000D01*
X130721928Y-67080000D01*
X130734188Y-67204482D01*
X130770498Y-67324180D01*
X130792317Y-67365000D01*
X130770498Y-67405820D01*
X130734188Y-67525518D01*
X130721928Y-67650000D01*
X130721928Y-68350000D01*
X130734188Y-68474482D01*
X130770498Y-68594180D01*
X130792317Y-68635000D01*
X130770498Y-68675820D01*
X130734188Y-68795518D01*
X130721928Y-68920000D01*
X130721928Y-69620000D01*
X130734188Y-69744482D01*
X130770498Y-69864180D01*
X130792317Y-69905000D01*
X130770498Y-69945820D01*
X130734188Y-70065518D01*
X130721928Y-70190000D01*
X130721928Y-70890000D01*
X130734188Y-71014482D01*
X130770498Y-71134180D01*
X130792317Y-71175000D01*
X130770498Y-71215820D01*
X130734188Y-71335518D01*
X130721928Y-71460000D01*
X130721928Y-71721928D01*
X130460000Y-71721928D01*
X130335518Y-71734188D01*
X130215820Y-71770498D01*
X130175000Y-71792317D01*
X130134180Y-71770498D01*
X130014482Y-71734188D01*
X129890000Y-71721928D01*
X129665482Y-71721928D01*
X129693589Y-71710286D01*
X129846728Y-71607962D01*
X129976962Y-71477728D01*
X130079286Y-71324589D01*
X130149768Y-71154429D01*
X130185700Y-70973789D01*
X130185700Y-70789611D01*
X130149768Y-70608971D01*
X130079286Y-70438811D01*
X129976962Y-70285672D01*
X129896112Y-70204822D01*
X129948586Y-70126289D01*
X130019068Y-69956129D01*
X130055000Y-69775489D01*
X130055000Y-69591311D01*
X130019068Y-69410671D01*
X129948586Y-69240511D01*
X129846262Y-69087372D01*
X129716028Y-68957138D01*
X129562889Y-68854814D01*
X129392729Y-68784332D01*
X129212089Y-68748400D01*
X129027911Y-68748400D01*
X128847271Y-68784332D01*
X128677111Y-68854814D01*
X128536900Y-68948500D01*
X126872294Y-68948500D01*
X126836199Y-68944945D01*
X126800104Y-68948500D01*
X126800095Y-68948500D01*
X126692115Y-68959135D01*
X126553567Y-69001163D01*
X126425880Y-69069413D01*
X126313962Y-69161262D01*
X126290946Y-69189307D01*
X123965808Y-71514446D01*
X123937763Y-71537462D01*
X123845914Y-71649380D01*
X123800583Y-71734188D01*
X123781594Y-71769714D01*
X123664482Y-71734188D01*
X123540000Y-71721928D01*
X123278072Y-71721928D01*
X123278072Y-71460000D01*
X123265812Y-71335518D01*
X123229502Y-71215820D01*
X123207683Y-71175000D01*
X123229502Y-71134180D01*
X123265812Y-71014482D01*
X123278072Y-70890000D01*
X123278072Y-70190000D01*
X123265812Y-70065518D01*
X123229502Y-69945820D01*
X123207683Y-69905000D01*
X123229502Y-69864180D01*
X123265812Y-69744482D01*
X123278072Y-69620000D01*
X123278072Y-68920000D01*
X123265812Y-68795518D01*
X123247454Y-68735000D01*
X123417049Y-68735000D01*
X123557111Y-68828586D01*
X123727271Y-68899068D01*
X123907911Y-68935000D01*
X124092089Y-68935000D01*
X124272729Y-68899068D01*
X124442889Y-68828586D01*
X124596028Y-68726262D01*
X124726262Y-68596028D01*
X124828586Y-68442889D01*
X124899068Y-68272729D01*
X124935000Y-68092089D01*
X124935000Y-67907911D01*
X126065000Y-67907911D01*
X126065000Y-68092089D01*
X126100932Y-68272729D01*
X126171414Y-68442889D01*
X126273738Y-68596028D01*
X126403972Y-68726262D01*
X126557111Y-68828586D01*
X126727271Y-68899068D01*
X126907911Y-68935000D01*
X127092089Y-68935000D01*
X127272729Y-68899068D01*
X127442889Y-68828586D01*
X127596028Y-68726262D01*
X127726262Y-68596028D01*
X127828586Y-68442889D01*
X127899068Y-68272729D01*
X127935000Y-68092089D01*
X127935000Y-67907911D01*
X127899068Y-67727271D01*
X127828586Y-67557111D01*
X127726262Y-67403972D01*
X127596028Y-67273738D01*
X127442889Y-67171414D01*
X127272729Y-67100932D01*
X127092089Y-67065000D01*
X126907911Y-67065000D01*
X126727271Y-67100932D01*
X126557111Y-67171414D01*
X126403972Y-67273738D01*
X126273738Y-67403972D01*
X126171414Y-67557111D01*
X126100932Y-67727271D01*
X126065000Y-67907911D01*
X124935000Y-67907911D01*
X124899068Y-67727271D01*
X124828586Y-67557111D01*
X124726262Y-67403972D01*
X124596028Y-67273738D01*
X124442889Y-67171414D01*
X124272729Y-67100932D01*
X124092089Y-67065000D01*
X123907911Y-67065000D01*
X123727271Y-67100932D01*
X123557111Y-67171414D01*
X123417049Y-67265000D01*
X123247454Y-67265000D01*
X123265812Y-67204482D01*
X123278072Y-67080000D01*
X123278072Y-66380000D01*
X123265812Y-66255518D01*
X123229502Y-66135820D01*
X123207683Y-66095000D01*
X123229502Y-66054180D01*
X123265812Y-65934482D01*
X123278072Y-65810000D01*
X123278072Y-65110000D01*
X123265812Y-64985518D01*
X123229502Y-64865820D01*
X123207683Y-64825000D01*
X123229502Y-64784180D01*
X123265812Y-64664482D01*
X123278072Y-64540000D01*
X123278072Y-64278072D01*
X123540000Y-64278072D01*
X123664482Y-64265812D01*
X123784180Y-64229502D01*
X123825000Y-64207683D01*
X123865820Y-64229502D01*
X123985518Y-64265812D01*
X124110000Y-64278072D01*
X124810000Y-64278072D01*
X124934482Y-64265812D01*
X124993623Y-64247872D01*
X124991444Y-64270000D01*
X125005635Y-64414085D01*
X125023182Y-64471928D01*
X125047664Y-64552633D01*
X125115914Y-64680320D01*
X125207763Y-64792238D01*
X125235808Y-64815254D01*
X125268068Y-64847514D01*
X125300932Y-65012729D01*
X125371414Y-65182889D01*
X125473738Y-65336028D01*
X125603972Y-65466262D01*
X125757111Y-65568586D01*
X125927271Y-65639068D01*
X126107911Y-65675000D01*
X126292089Y-65675000D01*
X126472729Y-65639068D01*
X126642889Y-65568586D01*
X126796028Y-65466262D01*
X126926262Y-65336028D01*
X127028586Y-65182889D01*
X127099068Y-65012729D01*
X127135000Y-64832089D01*
X127135000Y-64647911D01*
X127099068Y-64467271D01*
X127028586Y-64297111D01*
X127015865Y-64278072D01*
X127350000Y-64278072D01*
X127474482Y-64265812D01*
X127594180Y-64229502D01*
X127635000Y-64207683D01*
X127675820Y-64229502D01*
X127795518Y-64265812D01*
X127920000Y-64278072D01*
X128620000Y-64278072D01*
X128744482Y-64265812D01*
X128864180Y-64229502D01*
X128905000Y-64207683D01*
X128945820Y-64229502D01*
X129065518Y-64265812D01*
X129190000Y-64278072D01*
X129890000Y-64278072D01*
X130014482Y-64265812D01*
X130134180Y-64229502D01*
X130175000Y-64207683D01*
X130215820Y-64229502D01*
G37*
X130215820Y-64229502D02*
X130335518Y-64265812D01*
X130460000Y-64278072D01*
X130721928Y-64278072D01*
X130721928Y-64540000D01*
X130734188Y-64664482D01*
X130770498Y-64784180D01*
X130792317Y-64825000D01*
X130770498Y-64865820D01*
X130734188Y-64985518D01*
X130721928Y-65110000D01*
X130721928Y-65810000D01*
X130734188Y-65934482D01*
X130770498Y-66054180D01*
X130792317Y-66095000D01*
X130770498Y-66135820D01*
X130734188Y-66255518D01*
X130721928Y-66380000D01*
X130721928Y-67080000D01*
X130734188Y-67204482D01*
X130770498Y-67324180D01*
X130792317Y-67365000D01*
X130770498Y-67405820D01*
X130734188Y-67525518D01*
X130721928Y-67650000D01*
X130721928Y-68350000D01*
X130734188Y-68474482D01*
X130770498Y-68594180D01*
X130792317Y-68635000D01*
X130770498Y-68675820D01*
X130734188Y-68795518D01*
X130721928Y-68920000D01*
X130721928Y-69620000D01*
X130734188Y-69744482D01*
X130770498Y-69864180D01*
X130792317Y-69905000D01*
X130770498Y-69945820D01*
X130734188Y-70065518D01*
X130721928Y-70190000D01*
X130721928Y-70890000D01*
X130734188Y-71014482D01*
X130770498Y-71134180D01*
X130792317Y-71175000D01*
X130770498Y-71215820D01*
X130734188Y-71335518D01*
X130721928Y-71460000D01*
X130721928Y-71721928D01*
X130460000Y-71721928D01*
X130335518Y-71734188D01*
X130215820Y-71770498D01*
X130175000Y-71792317D01*
X130134180Y-71770498D01*
X130014482Y-71734188D01*
X129890000Y-71721928D01*
X129665482Y-71721928D01*
X129693589Y-71710286D01*
X129846728Y-71607962D01*
X129976962Y-71477728D01*
X130079286Y-71324589D01*
X130149768Y-71154429D01*
X130185700Y-70973789D01*
X130185700Y-70789611D01*
X130149768Y-70608971D01*
X130079286Y-70438811D01*
X129976962Y-70285672D01*
X129896112Y-70204822D01*
X129948586Y-70126289D01*
X130019068Y-69956129D01*
X130055000Y-69775489D01*
X130055000Y-69591311D01*
X130019068Y-69410671D01*
X129948586Y-69240511D01*
X129846262Y-69087372D01*
X129716028Y-68957138D01*
X129562889Y-68854814D01*
X129392729Y-68784332D01*
X129212089Y-68748400D01*
X129027911Y-68748400D01*
X128847271Y-68784332D01*
X128677111Y-68854814D01*
X128536900Y-68948500D01*
X126872294Y-68948500D01*
X126836199Y-68944945D01*
X126800104Y-68948500D01*
X126800095Y-68948500D01*
X126692115Y-68959135D01*
X126553567Y-69001163D01*
X126425880Y-69069413D01*
X126313962Y-69161262D01*
X126290946Y-69189307D01*
X123965808Y-71514446D01*
X123937763Y-71537462D01*
X123845914Y-71649380D01*
X123800583Y-71734188D01*
X123781594Y-71769714D01*
X123664482Y-71734188D01*
X123540000Y-71721928D01*
X123278072Y-71721928D01*
X123278072Y-71460000D01*
X123265812Y-71335518D01*
X123229502Y-71215820D01*
X123207683Y-71175000D01*
X123229502Y-71134180D01*
X123265812Y-71014482D01*
X123278072Y-70890000D01*
X123278072Y-70190000D01*
X123265812Y-70065518D01*
X123229502Y-69945820D01*
X123207683Y-69905000D01*
X123229502Y-69864180D01*
X123265812Y-69744482D01*
X123278072Y-69620000D01*
X123278072Y-68920000D01*
X123265812Y-68795518D01*
X123247454Y-68735000D01*
X123417049Y-68735000D01*
X123557111Y-68828586D01*
X123727271Y-68899068D01*
X123907911Y-68935000D01*
X124092089Y-68935000D01*
X124272729Y-68899068D01*
X124442889Y-68828586D01*
X124596028Y-68726262D01*
X124726262Y-68596028D01*
X124828586Y-68442889D01*
X124899068Y-68272729D01*
X124935000Y-68092089D01*
X124935000Y-67907911D01*
X126065000Y-67907911D01*
X126065000Y-68092089D01*
X126100932Y-68272729D01*
X126171414Y-68442889D01*
X126273738Y-68596028D01*
X126403972Y-68726262D01*
X126557111Y-68828586D01*
X126727271Y-68899068D01*
X126907911Y-68935000D01*
X127092089Y-68935000D01*
X127272729Y-68899068D01*
X127442889Y-68828586D01*
X127596028Y-68726262D01*
X127726262Y-68596028D01*
X127828586Y-68442889D01*
X127899068Y-68272729D01*
X127935000Y-68092089D01*
X127935000Y-67907911D01*
X127899068Y-67727271D01*
X127828586Y-67557111D01*
X127726262Y-67403972D01*
X127596028Y-67273738D01*
X127442889Y-67171414D01*
X127272729Y-67100932D01*
X127092089Y-67065000D01*
X126907911Y-67065000D01*
X126727271Y-67100932D01*
X126557111Y-67171414D01*
X126403972Y-67273738D01*
X126273738Y-67403972D01*
X126171414Y-67557111D01*
X126100932Y-67727271D01*
X126065000Y-67907911D01*
X124935000Y-67907911D01*
X124899068Y-67727271D01*
X124828586Y-67557111D01*
X124726262Y-67403972D01*
X124596028Y-67273738D01*
X124442889Y-67171414D01*
X124272729Y-67100932D01*
X124092089Y-67065000D01*
X123907911Y-67065000D01*
X123727271Y-67100932D01*
X123557111Y-67171414D01*
X123417049Y-67265000D01*
X123247454Y-67265000D01*
X123265812Y-67204482D01*
X123278072Y-67080000D01*
X123278072Y-66380000D01*
X123265812Y-66255518D01*
X123229502Y-66135820D01*
X123207683Y-66095000D01*
X123229502Y-66054180D01*
X123265812Y-65934482D01*
X123278072Y-65810000D01*
X123278072Y-65110000D01*
X123265812Y-64985518D01*
X123229502Y-64865820D01*
X123207683Y-64825000D01*
X123229502Y-64784180D01*
X123265812Y-64664482D01*
X123278072Y-64540000D01*
X123278072Y-64278072D01*
X123540000Y-64278072D01*
X123664482Y-64265812D01*
X123784180Y-64229502D01*
X123825000Y-64207683D01*
X123865820Y-64229502D01*
X123985518Y-64265812D01*
X124110000Y-64278072D01*
X124810000Y-64278072D01*
X124934482Y-64265812D01*
X124993623Y-64247872D01*
X124991444Y-64270000D01*
X125005635Y-64414085D01*
X125023182Y-64471928D01*
X125047664Y-64552633D01*
X125115914Y-64680320D01*
X125207763Y-64792238D01*
X125235808Y-64815254D01*
X125268068Y-64847514D01*
X125300932Y-65012729D01*
X125371414Y-65182889D01*
X125473738Y-65336028D01*
X125603972Y-65466262D01*
X125757111Y-65568586D01*
X125927271Y-65639068D01*
X126107911Y-65675000D01*
X126292089Y-65675000D01*
X126472729Y-65639068D01*
X126642889Y-65568586D01*
X126796028Y-65466262D01*
X126926262Y-65336028D01*
X127028586Y-65182889D01*
X127099068Y-65012729D01*
X127135000Y-64832089D01*
X127135000Y-64647911D01*
X127099068Y-64467271D01*
X127028586Y-64297111D01*
X127015865Y-64278072D01*
X127350000Y-64278072D01*
X127474482Y-64265812D01*
X127594180Y-64229502D01*
X127635000Y-64207683D01*
X127675820Y-64229502D01*
X127795518Y-64265812D01*
X127920000Y-64278072D01*
X128620000Y-64278072D01*
X128744482Y-64265812D01*
X128864180Y-64229502D01*
X128905000Y-64207683D01*
X128945820Y-64229502D01*
X129065518Y-64265812D01*
X129190000Y-64278072D01*
X129890000Y-64278072D01*
X130014482Y-64265812D01*
X130134180Y-64229502D01*
X130175000Y-64207683D01*
X130215820Y-64229502D01*
G36*
X128422114Y-70438811D02*
G01*
X128351632Y-70608971D01*
X128318768Y-70774185D01*
X127768254Y-71324700D01*
X127036105Y-71324700D01*
X127000000Y-71321144D01*
X126963895Y-71324700D01*
X126855915Y-71335335D01*
X126717367Y-71377363D01*
X126589680Y-71445613D01*
X126477762Y-71537462D01*
X126385913Y-71649380D01*
X126321594Y-71769713D01*
X126204482Y-71734188D01*
X126080000Y-71721928D01*
X125837218Y-71721928D01*
X127140647Y-70418500D01*
X128435685Y-70418500D01*
X128422114Y-70438811D01*
G37*
X128422114Y-70438811D02*
X128351632Y-70608971D01*
X128318768Y-70774185D01*
X127768254Y-71324700D01*
X127036105Y-71324700D01*
X127000000Y-71321144D01*
X126963895Y-71324700D01*
X126855915Y-71335335D01*
X126717367Y-71377363D01*
X126589680Y-71445613D01*
X126477762Y-71537462D01*
X126385913Y-71649380D01*
X126321594Y-71769713D01*
X126204482Y-71734188D01*
X126080000Y-71721928D01*
X125837218Y-71721928D01*
X127140647Y-70418500D01*
X128435685Y-70418500D01*
X128422114Y-70438811D01*
G36*
X147340000Y-71295411D02*
G01*
X147182241Y-71190000D01*
X147340000Y-71084589D01*
X147340000Y-71295411D01*
G37*
X147340000Y-71295411D02*
X147182241Y-71190000D01*
X147340000Y-71084589D01*
X147340000Y-71295411D01*
G36*
X144854446Y-67874193D02*
G01*
X144877462Y-67902238D01*
X144905506Y-67925253D01*
X144989380Y-67994087D01*
X145117066Y-68062337D01*
X145255615Y-68104365D01*
X145258324Y-68104632D01*
X145385363Y-68294759D01*
X145585241Y-68494637D01*
X145817759Y-68650000D01*
X145585241Y-68805363D01*
X145454875Y-68935729D01*
X143064546Y-66545400D01*
X143525654Y-66545400D01*
X144854446Y-67874193D01*
G37*
X144854446Y-67874193D02*
X144877462Y-67902238D01*
X144905506Y-67925253D01*
X144989380Y-67994087D01*
X145117066Y-68062337D01*
X145255615Y-68104365D01*
X145258324Y-68104632D01*
X145385363Y-68294759D01*
X145585241Y-68494637D01*
X145817759Y-68650000D01*
X145585241Y-68805363D01*
X145454875Y-68935729D01*
X143064546Y-66545400D01*
X143525654Y-66545400D01*
X144854446Y-67874193D01*
G36*
X147340000Y-68755411D02*
G01*
X147182241Y-68650000D01*
X147340000Y-68544589D01*
X147340000Y-68755411D01*
G37*
X147340000Y-68755411D02*
X147182241Y-68650000D01*
X147340000Y-68544589D01*
X147340000Y-68755411D01*
G36*
X145585241Y-66265363D02*
G01*
X145454875Y-66395729D01*
X145219147Y-66160000D01*
X145742928Y-66160000D01*
X145585241Y-66265363D01*
G37*
X145585241Y-66265363D02*
X145454875Y-66395729D01*
X145219147Y-66160000D01*
X145742928Y-66160000D01*
X145585241Y-66265363D01*
G36*
X147340000Y-66215411D02*
G01*
X147257072Y-66160000D01*
X147340000Y-66160000D01*
X147340000Y-66215411D01*
G37*
X147340000Y-66215411D02*
X147257072Y-66160000D01*
X147340000Y-66160000D01*
X147340000Y-66215411D01*
G36*
X132464882Y-63201928D02*
G01*
X131798072Y-63201928D01*
X131798072Y-62535118D01*
X132464882Y-63201928D01*
G37*
X132464882Y-63201928D02*
X131798072Y-63201928D01*
X131798072Y-62535118D01*
X132464882Y-63201928D01*
G36*
X133840000Y-61931854D02*
G01*
X132568146Y-60660000D01*
X133840001Y-60660000D01*
X133840000Y-61931854D01*
G37*
X133840000Y-61931854D02*
X132568146Y-60660000D01*
X133840001Y-60660000D01*
X133840000Y-61931854D01*
%TD*%
M02*
