M48
; DRILL file {KiCad (5.1.6)-1} date 02/27/21 12:52:23
; FORMAT={2:4/ absolute / inch / suppress leading zeros}
; #@! TF.CreationDate,2021-02-27T12:52:23+00:00
; #@! TF.GenerationSoftware,Kicad,Pcbnew,(5.1.6)-1
FMAT,2
INCH,TZ
T1C0.0118
T2C0.0315
%
G90
G05
T1
X48535Y-29673
X48819Y-26772
X49685Y-25488
X50000Y-26772
X50835Y-27434
X50886Y-27906
X55512Y-30512
X56890Y-30512
T2
X54677Y-26528
X54677Y-27528
X54677Y-28528
X54677Y-29528
X54677Y-30528
X54677Y-31528
X54677Y-32528
X54677Y-33528
X54677Y-34528
X57677Y-26528
X57677Y-27528
X57677Y-28528
X57677Y-29528
X57677Y-30528
X57677Y-31528
X57677Y-32528
X57677Y-33528
X57677Y-34528
T0
M30
