%TF.GenerationSoftware,KiCad,Pcbnew,(5.1.6)-1*%
%TF.CreationDate,2021-02-27T12:52:12+00:00*%
%TF.ProjectId,EgretCudaAdapter,45677265-7443-4756-9461-416461707465,rev?*%
%TF.SameCoordinates,Original*%
%TF.FileFunction,Copper,L2,Bot*%
%TF.FilePolarity,Positive*%
%FSLAX46Y46*%
G04 Gerber Fmt 4.6, Leading zero omitted, Abs format (unit mm)*
G04 Created by KiCad (PCBNEW (5.1.6)-1) date 2021-02-27 12:52:12*
%MOMM*%
%LPD*%
G01*
G04 APERTURE LIST*
%TA.AperFunction,ComponentPad*%
%ADD10O,1.600000X1.600000*%
%TD*%
%TA.AperFunction,ComponentPad*%
%ADD11R,1.600000X1.600000*%
%TD*%
%TA.AperFunction,ViaPad*%
%ADD12C,0.600000*%
%TD*%
%TA.AperFunction,Conductor*%
%ADD13C,0.200000*%
%TD*%
%TA.AperFunction,Conductor*%
%ADD14C,0.254000*%
%TD*%
%TA.AperFunction,NonConductor*%
%ADD15C,0.254000*%
%TD*%
G04 APERTURE END LIST*
D10*
%TO.P,344-0440-B,18*%
%TO.N,/PB5*%
X138880000Y-87700000D03*
%TO.P,344-0440-B,9*%
%TO.N,/CB2*%
X146500000Y-67380000D03*
%TO.P,344-0440-B,17*%
%TO.N,/PB4*%
X138880000Y-85160000D03*
%TO.P,344-0440-B,8*%
%TO.N,/CB1*%
X146500000Y-69920000D03*
%TO.P,344-0440-B,16*%
%TO.N,/C3.7M*%
X138880000Y-82620000D03*
%TO.P,344-0440-B,7*%
%TO.N,Net-(344-0440-B1-Pad7)*%
X146500000Y-72460000D03*
%TO.P,344-0440-B,15*%
%TO.N,Net-(344-0440-B1-Pad15)*%
X138880000Y-80080000D03*
%TO.P,344-0440-B,6*%
%TO.N,Net-(344-0440-B1-Pad6)*%
X146500000Y-75000000D03*
%TO.P,344-0440-B,14*%
%TO.N,/VCC*%
X138880000Y-77540000D03*
%TO.P,344-0440-B,5*%
%TO.N,/GND*%
X146500000Y-77540000D03*
%TO.P,344-0440-B,13*%
%TO.N,Net-(344-0440-B1-Pad13)*%
X138880000Y-75000000D03*
%TO.P,344-0440-B,4*%
%TO.N,/RESET*%
X146500000Y-80080000D03*
%TO.P,344-0440-B,12*%
%TO.N,Net-(344-0440-B1-Pad12)*%
X138880000Y-72460000D03*
%TO.P,344-0440-B,3*%
%TO.N,/T0CKI*%
X146500000Y-82620000D03*
%TO.P,344-0440-B,11*%
%TO.N,Net-(344-0440-B1-Pad11)*%
X138880000Y-69920000D03*
%TO.P,344-0440-B,2*%
%TO.N,/ADB*%
X146500000Y-85160000D03*
%TO.P,344-0440-B,10*%
%TO.N,/PB3*%
X138880000Y-67380000D03*
D11*
%TO.P,344-0440-B,1*%
%TO.N,/RA2*%
X146500000Y-87700000D03*
%TD*%
D12*
%TO.N,/VCC*%
X141000000Y-77500000D03*
X124000000Y-68000000D03*
%TO.N,/PB3*%
X126200000Y-64740000D03*
%TO.N,/GND*%
X144500000Y-77500000D03*
X127000000Y-68000000D03*
%TO.N,/C3.7M*%
X123280000Y-75370000D03*
%TO.N,/PB4*%
X129120000Y-69683400D03*
%TO.N,/RA2*%
X129250700Y-70881700D03*
%TD*%
D13*
%TO.N,/VCC*%
X138880000Y-77540000D02*
X139980300Y-77540000D01*
X141000000Y-77500000D02*
X140020300Y-77500000D01*
X140020300Y-77500000D02*
X139980300Y-77540000D01*
X138880000Y-77540000D02*
X137779700Y-77540000D01*
X124000000Y-68000000D02*
X129204400Y-73204400D01*
X129204400Y-73204400D02*
X133444100Y-73204400D01*
X133444100Y-73204400D02*
X137779700Y-77540000D01*
%TO.N,/PB3*%
X126200000Y-64740000D02*
X128840000Y-67380000D01*
X128840000Y-67380000D02*
X138880000Y-67380000D01*
%TO.N,/C3.7M*%
X138880000Y-82620000D02*
X138880000Y-81519700D01*
X123280000Y-75370000D02*
X134909800Y-75370000D01*
X134909800Y-75370000D02*
X138379700Y-78839900D01*
X138379700Y-78839900D02*
X139244500Y-78839900D01*
X139244500Y-78839900D02*
X139983600Y-79579000D01*
X139983600Y-79579000D02*
X139983600Y-80644100D01*
X139983600Y-80644100D02*
X139108000Y-81519700D01*
X139108000Y-81519700D02*
X138880000Y-81519700D01*
%TO.N,/PB4*%
X138880000Y-85160000D02*
X139980300Y-85160000D01*
X129120000Y-69683400D02*
X134303200Y-69683400D01*
X134303200Y-69683400D02*
X138449300Y-73829500D01*
X138449300Y-73829500D02*
X139980400Y-73829500D01*
X139980400Y-73829500D02*
X144960900Y-78810000D01*
X144960900Y-78810000D02*
X146858100Y-78810000D01*
X146858100Y-78810000D02*
X147624300Y-79576200D01*
X147624300Y-79576200D02*
X147624300Y-88604500D01*
X147624300Y-88604500D02*
X147428400Y-88800400D01*
X147428400Y-88800400D02*
X143620700Y-88800400D01*
X143620700Y-88800400D02*
X139980300Y-85160000D01*
%TO.N,/RA2*%
X146500000Y-87700000D02*
X146500000Y-86599700D01*
X129250700Y-70881700D02*
X132246300Y-70881700D01*
X132246300Y-70881700D02*
X137717600Y-76353000D01*
X137717600Y-76353000D02*
X140732200Y-76353000D01*
X140732200Y-76353000D02*
X145399700Y-81020500D01*
X145399700Y-81020500D02*
X145399700Y-85637100D01*
X145399700Y-85637100D02*
X146362300Y-86599700D01*
X146362300Y-86599700D02*
X146500000Y-86599700D01*
%TD*%
D14*
%TO.N,/GND*%
G36*
X145585241Y-66265363D02*
G01*
X145385363Y-66465241D01*
X145228320Y-66700273D01*
X145120147Y-66961426D01*
X145065000Y-67238665D01*
X145065000Y-67521335D01*
X145120147Y-67798574D01*
X145228320Y-68059727D01*
X145385363Y-68294759D01*
X145585241Y-68494637D01*
X145817759Y-68650000D01*
X145585241Y-68805363D01*
X145385363Y-69005241D01*
X145228320Y-69240273D01*
X145120147Y-69501426D01*
X145065000Y-69778665D01*
X145065000Y-70061335D01*
X145120147Y-70338574D01*
X145228320Y-70599727D01*
X145385363Y-70834759D01*
X145585241Y-71034637D01*
X145817759Y-71190000D01*
X145585241Y-71345363D01*
X145385363Y-71545241D01*
X145228320Y-71780273D01*
X145120147Y-72041426D01*
X145065000Y-72318665D01*
X145065000Y-72601335D01*
X145120147Y-72878574D01*
X145228320Y-73139727D01*
X145385363Y-73374759D01*
X145585241Y-73574637D01*
X145817759Y-73730000D01*
X145585241Y-73885363D01*
X145385363Y-74085241D01*
X145228320Y-74320273D01*
X145120147Y-74581426D01*
X145065000Y-74858665D01*
X145065000Y-75141335D01*
X145120147Y-75418574D01*
X145228320Y-75679727D01*
X145385363Y-75914759D01*
X145585241Y-76114637D01*
X145820273Y-76271680D01*
X145830865Y-76276067D01*
X145644869Y-76387615D01*
X145436481Y-76576586D01*
X145268963Y-76802580D01*
X145148754Y-77056913D01*
X145108096Y-77190961D01*
X145230085Y-77413000D01*
X146373000Y-77413000D01*
X146373000Y-77393000D01*
X146627000Y-77393000D01*
X146627000Y-77413000D01*
X146647000Y-77413000D01*
X146647000Y-77667000D01*
X146627000Y-77667000D01*
X146627000Y-77687000D01*
X146373000Y-77687000D01*
X146373000Y-77667000D01*
X145230085Y-77667000D01*
X145108096Y-77889039D01*
X145120595Y-77930248D01*
X140525659Y-73335313D01*
X140502638Y-73307262D01*
X140390720Y-73215413D01*
X140263033Y-73147163D01*
X140161373Y-73116325D01*
X140259853Y-72878574D01*
X140315000Y-72601335D01*
X140315000Y-72318665D01*
X140259853Y-72041426D01*
X140151680Y-71780273D01*
X139994637Y-71545241D01*
X139794759Y-71345363D01*
X139562241Y-71190000D01*
X139794759Y-71034637D01*
X139994637Y-70834759D01*
X140151680Y-70599727D01*
X140259853Y-70338574D01*
X140315000Y-70061335D01*
X140315000Y-69778665D01*
X140259853Y-69501426D01*
X140151680Y-69240273D01*
X139994637Y-69005241D01*
X139794759Y-68805363D01*
X139562241Y-68650000D01*
X139794759Y-68494637D01*
X139994637Y-68294759D01*
X140151680Y-68059727D01*
X140259853Y-67798574D01*
X140315000Y-67521335D01*
X140315000Y-67238665D01*
X140259853Y-66961426D01*
X140151680Y-66700273D01*
X139994637Y-66465241D01*
X139794759Y-66265363D01*
X139637072Y-66160000D01*
X145742928Y-66160000D01*
X145585241Y-66265363D01*
G37*
X145585241Y-66265363D02*
X145385363Y-66465241D01*
X145228320Y-66700273D01*
X145120147Y-66961426D01*
X145065000Y-67238665D01*
X145065000Y-67521335D01*
X145120147Y-67798574D01*
X145228320Y-68059727D01*
X145385363Y-68294759D01*
X145585241Y-68494637D01*
X145817759Y-68650000D01*
X145585241Y-68805363D01*
X145385363Y-69005241D01*
X145228320Y-69240273D01*
X145120147Y-69501426D01*
X145065000Y-69778665D01*
X145065000Y-70061335D01*
X145120147Y-70338574D01*
X145228320Y-70599727D01*
X145385363Y-70834759D01*
X145585241Y-71034637D01*
X145817759Y-71190000D01*
X145585241Y-71345363D01*
X145385363Y-71545241D01*
X145228320Y-71780273D01*
X145120147Y-72041426D01*
X145065000Y-72318665D01*
X145065000Y-72601335D01*
X145120147Y-72878574D01*
X145228320Y-73139727D01*
X145385363Y-73374759D01*
X145585241Y-73574637D01*
X145817759Y-73730000D01*
X145585241Y-73885363D01*
X145385363Y-74085241D01*
X145228320Y-74320273D01*
X145120147Y-74581426D01*
X145065000Y-74858665D01*
X145065000Y-75141335D01*
X145120147Y-75418574D01*
X145228320Y-75679727D01*
X145385363Y-75914759D01*
X145585241Y-76114637D01*
X145820273Y-76271680D01*
X145830865Y-76276067D01*
X145644869Y-76387615D01*
X145436481Y-76576586D01*
X145268963Y-76802580D01*
X145148754Y-77056913D01*
X145108096Y-77190961D01*
X145230085Y-77413000D01*
X146373000Y-77413000D01*
X146373000Y-77393000D01*
X146627000Y-77393000D01*
X146627000Y-77413000D01*
X146647000Y-77413000D01*
X146647000Y-77667000D01*
X146627000Y-77667000D01*
X146627000Y-77687000D01*
X146373000Y-77687000D01*
X146373000Y-77667000D01*
X145230085Y-77667000D01*
X145108096Y-77889039D01*
X145120595Y-77930248D01*
X140525659Y-73335313D01*
X140502638Y-73307262D01*
X140390720Y-73215413D01*
X140263033Y-73147163D01*
X140161373Y-73116325D01*
X140259853Y-72878574D01*
X140315000Y-72601335D01*
X140315000Y-72318665D01*
X140259853Y-72041426D01*
X140151680Y-71780273D01*
X139994637Y-71545241D01*
X139794759Y-71345363D01*
X139562241Y-71190000D01*
X139794759Y-71034637D01*
X139994637Y-70834759D01*
X140151680Y-70599727D01*
X140259853Y-70338574D01*
X140315000Y-70061335D01*
X140315000Y-69778665D01*
X140259853Y-69501426D01*
X140151680Y-69240273D01*
X139994637Y-69005241D01*
X139794759Y-68805363D01*
X139562241Y-68650000D01*
X139794759Y-68494637D01*
X139994637Y-68294759D01*
X140151680Y-68059727D01*
X140259853Y-67798574D01*
X140315000Y-67521335D01*
X140315000Y-67238665D01*
X140259853Y-66961426D01*
X140151680Y-66700273D01*
X139994637Y-66465241D01*
X139794759Y-66265363D01*
X139637072Y-66160000D01*
X145742928Y-66160000D01*
X145585241Y-66265363D01*
G36*
X133840000Y-62997633D02*
G01*
X133839531Y-63060042D01*
X133846112Y-63094479D01*
X133849550Y-63129382D01*
X133858288Y-63158186D01*
X133863936Y-63187740D01*
X133877110Y-63220232D01*
X133887290Y-63253792D01*
X133901478Y-63280336D01*
X133912784Y-63308222D01*
X133932043Y-63337520D01*
X133948575Y-63368449D01*
X133967668Y-63391715D01*
X133984198Y-63416860D01*
X134008803Y-63441838D01*
X134031052Y-63468948D01*
X134079429Y-63508650D01*
X137029467Y-65967017D01*
X137031052Y-65968948D01*
X137079312Y-66008555D01*
X137102383Y-66027780D01*
X137104445Y-66029180D01*
X137131550Y-66051425D01*
X137158089Y-66065610D01*
X137182986Y-66082518D01*
X137215284Y-66096181D01*
X137246207Y-66112710D01*
X137275005Y-66121446D01*
X137302721Y-66133171D01*
X137337057Y-66140270D01*
X137370617Y-66150450D01*
X137400570Y-66153400D01*
X137430037Y-66159492D01*
X137465098Y-66159755D01*
X137467581Y-66160000D01*
X137497634Y-66160000D01*
X137560042Y-66160469D01*
X137562496Y-66160000D01*
X138122928Y-66160000D01*
X137965241Y-66265363D01*
X137765363Y-66465241D01*
X137645252Y-66645000D01*
X129144447Y-66645000D01*
X127131932Y-64632485D01*
X127099068Y-64467271D01*
X127028586Y-64297111D01*
X126926262Y-64143972D01*
X126796028Y-64013738D01*
X126642889Y-63911414D01*
X126472729Y-63840932D01*
X126292089Y-63805000D01*
X126107911Y-63805000D01*
X125927271Y-63840932D01*
X125757111Y-63911414D01*
X125603972Y-64013738D01*
X125473738Y-64143972D01*
X125371414Y-64297111D01*
X125300932Y-64467271D01*
X125265000Y-64647911D01*
X125265000Y-64832089D01*
X125300932Y-65012729D01*
X125371414Y-65182889D01*
X125473738Y-65336028D01*
X125603972Y-65466262D01*
X125757111Y-65568586D01*
X125927271Y-65639068D01*
X126092485Y-65671932D01*
X128294746Y-67874193D01*
X128317762Y-67902238D01*
X128429680Y-67994087D01*
X128557367Y-68062337D01*
X128695915Y-68104365D01*
X128840000Y-68118556D01*
X128876105Y-68115000D01*
X137645252Y-68115000D01*
X137765363Y-68294759D01*
X137965241Y-68494637D01*
X138197759Y-68650000D01*
X137965241Y-68805363D01*
X137765363Y-69005241D01*
X137608320Y-69240273D01*
X137500147Y-69501426D01*
X137445000Y-69778665D01*
X137445000Y-70061335D01*
X137500147Y-70338574D01*
X137608320Y-70599727D01*
X137765363Y-70834759D01*
X137965241Y-71034637D01*
X138197759Y-71190000D01*
X137965241Y-71345363D01*
X137765363Y-71545241D01*
X137608320Y-71780273D01*
X137558880Y-71899633D01*
X134848459Y-69189213D01*
X134825438Y-69161162D01*
X134713520Y-69069313D01*
X134585833Y-69001063D01*
X134447285Y-68959035D01*
X134339305Y-68948400D01*
X134303200Y-68944844D01*
X134267095Y-68948400D01*
X129702951Y-68948400D01*
X129562889Y-68854814D01*
X129392729Y-68784332D01*
X129212089Y-68748400D01*
X129027911Y-68748400D01*
X128847271Y-68784332D01*
X128677111Y-68854814D01*
X128523972Y-68957138D01*
X128393738Y-69087372D01*
X128291414Y-69240511D01*
X128220932Y-69410671D01*
X128185000Y-69591311D01*
X128185000Y-69775489D01*
X128220932Y-69956129D01*
X128291414Y-70126289D01*
X128393738Y-70279428D01*
X128474588Y-70360278D01*
X128422114Y-70438811D01*
X128351632Y-70608971D01*
X128315700Y-70789611D01*
X128315700Y-70973789D01*
X128351632Y-71154429D01*
X128422114Y-71324589D01*
X128524438Y-71477728D01*
X128654672Y-71607962D01*
X128807811Y-71710286D01*
X128977971Y-71780768D01*
X129158611Y-71816700D01*
X129342789Y-71816700D01*
X129523429Y-71780768D01*
X129693589Y-71710286D01*
X129833651Y-71616700D01*
X131941854Y-71616700D01*
X132794554Y-72469400D01*
X129508847Y-72469400D01*
X124931932Y-67892486D01*
X124899068Y-67727271D01*
X124828586Y-67557111D01*
X124726262Y-67403972D01*
X124596028Y-67273738D01*
X124442889Y-67171414D01*
X124272729Y-67100932D01*
X124092089Y-67065000D01*
X123907911Y-67065000D01*
X123727271Y-67100932D01*
X123557111Y-67171414D01*
X123403972Y-67273738D01*
X123273738Y-67403972D01*
X123171414Y-67557111D01*
X123100932Y-67727271D01*
X123065000Y-67907911D01*
X123065000Y-68092089D01*
X123100932Y-68272729D01*
X123171414Y-68442889D01*
X123273738Y-68596028D01*
X123403972Y-68726262D01*
X123557111Y-68828586D01*
X123727271Y-68899068D01*
X123892486Y-68931932D01*
X128659146Y-73698593D01*
X128682162Y-73726638D01*
X128794080Y-73818487D01*
X128921767Y-73886737D01*
X129018286Y-73916016D01*
X129060314Y-73928765D01*
X129204399Y-73942956D01*
X129240504Y-73939400D01*
X133139654Y-73939400D01*
X133835254Y-74635000D01*
X123862951Y-74635000D01*
X123722889Y-74541414D01*
X123552729Y-74470932D01*
X123372089Y-74435000D01*
X123187911Y-74435000D01*
X123007271Y-74470932D01*
X122837111Y-74541414D01*
X122683972Y-74643738D01*
X122553738Y-74773972D01*
X122451414Y-74927111D01*
X122380932Y-75097271D01*
X122345000Y-75277911D01*
X122345000Y-75340000D01*
X119660000Y-75340000D01*
X119660000Y-60660000D01*
X133840001Y-60660000D01*
X133840000Y-62997633D01*
G37*
X133840000Y-62997633D02*
X133839531Y-63060042D01*
X133846112Y-63094479D01*
X133849550Y-63129382D01*
X133858288Y-63158186D01*
X133863936Y-63187740D01*
X133877110Y-63220232D01*
X133887290Y-63253792D01*
X133901478Y-63280336D01*
X133912784Y-63308222D01*
X133932043Y-63337520D01*
X133948575Y-63368449D01*
X133967668Y-63391715D01*
X133984198Y-63416860D01*
X134008803Y-63441838D01*
X134031052Y-63468948D01*
X134079429Y-63508650D01*
X137029467Y-65967017D01*
X137031052Y-65968948D01*
X137079312Y-66008555D01*
X137102383Y-66027780D01*
X137104445Y-66029180D01*
X137131550Y-66051425D01*
X137158089Y-66065610D01*
X137182986Y-66082518D01*
X137215284Y-66096181D01*
X137246207Y-66112710D01*
X137275005Y-66121446D01*
X137302721Y-66133171D01*
X137337057Y-66140270D01*
X137370617Y-66150450D01*
X137400570Y-66153400D01*
X137430037Y-66159492D01*
X137465098Y-66159755D01*
X137467581Y-66160000D01*
X137497634Y-66160000D01*
X137560042Y-66160469D01*
X137562496Y-66160000D01*
X138122928Y-66160000D01*
X137965241Y-66265363D01*
X137765363Y-66465241D01*
X137645252Y-66645000D01*
X129144447Y-66645000D01*
X127131932Y-64632485D01*
X127099068Y-64467271D01*
X127028586Y-64297111D01*
X126926262Y-64143972D01*
X126796028Y-64013738D01*
X126642889Y-63911414D01*
X126472729Y-63840932D01*
X126292089Y-63805000D01*
X126107911Y-63805000D01*
X125927271Y-63840932D01*
X125757111Y-63911414D01*
X125603972Y-64013738D01*
X125473738Y-64143972D01*
X125371414Y-64297111D01*
X125300932Y-64467271D01*
X125265000Y-64647911D01*
X125265000Y-64832089D01*
X125300932Y-65012729D01*
X125371414Y-65182889D01*
X125473738Y-65336028D01*
X125603972Y-65466262D01*
X125757111Y-65568586D01*
X125927271Y-65639068D01*
X126092485Y-65671932D01*
X128294746Y-67874193D01*
X128317762Y-67902238D01*
X128429680Y-67994087D01*
X128557367Y-68062337D01*
X128695915Y-68104365D01*
X128840000Y-68118556D01*
X128876105Y-68115000D01*
X137645252Y-68115000D01*
X137765363Y-68294759D01*
X137965241Y-68494637D01*
X138197759Y-68650000D01*
X137965241Y-68805363D01*
X137765363Y-69005241D01*
X137608320Y-69240273D01*
X137500147Y-69501426D01*
X137445000Y-69778665D01*
X137445000Y-70061335D01*
X137500147Y-70338574D01*
X137608320Y-70599727D01*
X137765363Y-70834759D01*
X137965241Y-71034637D01*
X138197759Y-71190000D01*
X137965241Y-71345363D01*
X137765363Y-71545241D01*
X137608320Y-71780273D01*
X137558880Y-71899633D01*
X134848459Y-69189213D01*
X134825438Y-69161162D01*
X134713520Y-69069313D01*
X134585833Y-69001063D01*
X134447285Y-68959035D01*
X134339305Y-68948400D01*
X134303200Y-68944844D01*
X134267095Y-68948400D01*
X129702951Y-68948400D01*
X129562889Y-68854814D01*
X129392729Y-68784332D01*
X129212089Y-68748400D01*
X129027911Y-68748400D01*
X128847271Y-68784332D01*
X128677111Y-68854814D01*
X128523972Y-68957138D01*
X128393738Y-69087372D01*
X128291414Y-69240511D01*
X128220932Y-69410671D01*
X128185000Y-69591311D01*
X128185000Y-69775489D01*
X128220932Y-69956129D01*
X128291414Y-70126289D01*
X128393738Y-70279428D01*
X128474588Y-70360278D01*
X128422114Y-70438811D01*
X128351632Y-70608971D01*
X128315700Y-70789611D01*
X128315700Y-70973789D01*
X128351632Y-71154429D01*
X128422114Y-71324589D01*
X128524438Y-71477728D01*
X128654672Y-71607962D01*
X128807811Y-71710286D01*
X128977971Y-71780768D01*
X129158611Y-71816700D01*
X129342789Y-71816700D01*
X129523429Y-71780768D01*
X129693589Y-71710286D01*
X129833651Y-71616700D01*
X131941854Y-71616700D01*
X132794554Y-72469400D01*
X129508847Y-72469400D01*
X124931932Y-67892486D01*
X124899068Y-67727271D01*
X124828586Y-67557111D01*
X124726262Y-67403972D01*
X124596028Y-67273738D01*
X124442889Y-67171414D01*
X124272729Y-67100932D01*
X124092089Y-67065000D01*
X123907911Y-67065000D01*
X123727271Y-67100932D01*
X123557111Y-67171414D01*
X123403972Y-67273738D01*
X123273738Y-67403972D01*
X123171414Y-67557111D01*
X123100932Y-67727271D01*
X123065000Y-67907911D01*
X123065000Y-68092089D01*
X123100932Y-68272729D01*
X123171414Y-68442889D01*
X123273738Y-68596028D01*
X123403972Y-68726262D01*
X123557111Y-68828586D01*
X123727271Y-68899068D01*
X123892486Y-68931932D01*
X128659146Y-73698593D01*
X128682162Y-73726638D01*
X128794080Y-73818487D01*
X128921767Y-73886737D01*
X129018286Y-73916016D01*
X129060314Y-73928765D01*
X129204399Y-73942956D01*
X129240504Y-73939400D01*
X133139654Y-73939400D01*
X133835254Y-74635000D01*
X123862951Y-74635000D01*
X123722889Y-74541414D01*
X123552729Y-74470932D01*
X123372089Y-74435000D01*
X123187911Y-74435000D01*
X123007271Y-74470932D01*
X122837111Y-74541414D01*
X122683972Y-74643738D01*
X122553738Y-74773972D01*
X122451414Y-74927111D01*
X122380932Y-75097271D01*
X122345000Y-75277911D01*
X122345000Y-75340000D01*
X119660000Y-75340000D01*
X119660000Y-60660000D01*
X133840001Y-60660000D01*
X133840000Y-62997633D01*
D15*
G36*
X142620853Y-88840000D02*
G01*
X139756801Y-88840000D01*
X139794759Y-88814637D01*
X139994637Y-88614759D01*
X140151680Y-88379727D01*
X140259853Y-88118574D01*
X140315000Y-87841335D01*
X140315000Y-87558665D01*
X140259853Y-87281426D01*
X140151680Y-87020273D01*
X139994637Y-86785241D01*
X139794759Y-86585363D01*
X139562241Y-86430000D01*
X139794759Y-86274637D01*
X139925125Y-86144271D01*
X142620853Y-88840000D01*
G37*
X142620853Y-88840000D02*
X139756801Y-88840000D01*
X139794759Y-88814637D01*
X139994637Y-88614759D01*
X140151680Y-88379727D01*
X140259853Y-88118574D01*
X140315000Y-87841335D01*
X140315000Y-87558665D01*
X140259853Y-87281426D01*
X140151680Y-87020273D01*
X139994637Y-86785241D01*
X139794759Y-86585363D01*
X139562241Y-86430000D01*
X139794759Y-86274637D01*
X139925125Y-86144271D01*
X142620853Y-88840000D01*
G36*
X140557111Y-78328586D02*
G01*
X140727271Y-78399068D01*
X140907911Y-78435000D01*
X141092089Y-78435000D01*
X141272729Y-78399068D01*
X141442889Y-78328586D01*
X141578037Y-78238283D01*
X144664700Y-81324947D01*
X144664701Y-85600985D01*
X144661144Y-85637100D01*
X144675335Y-85781185D01*
X144693094Y-85839727D01*
X144717364Y-85919733D01*
X144785614Y-86047420D01*
X144877463Y-86159338D01*
X144905508Y-86182354D01*
X145214176Y-86491023D01*
X145169463Y-86545506D01*
X145110498Y-86655820D01*
X145074188Y-86775518D01*
X145061928Y-86900000D01*
X145061928Y-88065400D01*
X143925147Y-88065400D01*
X140525559Y-84665813D01*
X140502538Y-84637762D01*
X140390620Y-84545913D01*
X140262933Y-84477663D01*
X140124385Y-84435635D01*
X140121676Y-84435368D01*
X139994637Y-84245241D01*
X139794759Y-84045363D01*
X139562241Y-83890000D01*
X139794759Y-83734637D01*
X139994637Y-83534759D01*
X140151680Y-83299727D01*
X140259853Y-83038574D01*
X140315000Y-82761335D01*
X140315000Y-82478665D01*
X140259853Y-82201426D01*
X140151680Y-81940273D01*
X139994637Y-81705241D01*
X139978271Y-81688875D01*
X140477793Y-81189354D01*
X140505838Y-81166338D01*
X140597687Y-81054420D01*
X140665937Y-80926733D01*
X140707965Y-80788185D01*
X140718600Y-80680205D01*
X140718600Y-80680196D01*
X140722155Y-80644101D01*
X140718600Y-80608006D01*
X140718600Y-79615094D01*
X140722155Y-79578999D01*
X140718600Y-79542904D01*
X140718600Y-79542895D01*
X140707965Y-79434915D01*
X140665937Y-79296367D01*
X140597687Y-79168680D01*
X140535276Y-79092633D01*
X140528853Y-79084806D01*
X140528850Y-79084803D01*
X140505837Y-79056762D01*
X140477797Y-79033750D01*
X139946721Y-78502675D01*
X139994637Y-78454759D01*
X140121676Y-78264632D01*
X140124385Y-78264365D01*
X140221189Y-78235000D01*
X140417049Y-78235000D01*
X140557111Y-78328586D01*
G37*
X140557111Y-78328586D02*
X140727271Y-78399068D01*
X140907911Y-78435000D01*
X141092089Y-78435000D01*
X141272729Y-78399068D01*
X141442889Y-78328586D01*
X141578037Y-78238283D01*
X144664700Y-81324947D01*
X144664701Y-85600985D01*
X144661144Y-85637100D01*
X144675335Y-85781185D01*
X144693094Y-85839727D01*
X144717364Y-85919733D01*
X144785614Y-86047420D01*
X144877463Y-86159338D01*
X144905508Y-86182354D01*
X145214176Y-86491023D01*
X145169463Y-86545506D01*
X145110498Y-86655820D01*
X145074188Y-86775518D01*
X145061928Y-86900000D01*
X145061928Y-88065400D01*
X143925147Y-88065400D01*
X140525559Y-84665813D01*
X140502538Y-84637762D01*
X140390620Y-84545913D01*
X140262933Y-84477663D01*
X140124385Y-84435635D01*
X140121676Y-84435368D01*
X139994637Y-84245241D01*
X139794759Y-84045363D01*
X139562241Y-83890000D01*
X139794759Y-83734637D01*
X139994637Y-83534759D01*
X140151680Y-83299727D01*
X140259853Y-83038574D01*
X140315000Y-82761335D01*
X140315000Y-82478665D01*
X140259853Y-82201426D01*
X140151680Y-81940273D01*
X139994637Y-81705241D01*
X139978271Y-81688875D01*
X140477793Y-81189354D01*
X140505838Y-81166338D01*
X140597687Y-81054420D01*
X140665937Y-80926733D01*
X140707965Y-80788185D01*
X140718600Y-80680205D01*
X140718600Y-80680196D01*
X140722155Y-80644101D01*
X140718600Y-80608006D01*
X140718600Y-79615094D01*
X140722155Y-79578999D01*
X140718600Y-79542904D01*
X140718600Y-79542895D01*
X140707965Y-79434915D01*
X140665937Y-79296367D01*
X140597687Y-79168680D01*
X140535276Y-79092633D01*
X140528853Y-79084806D01*
X140528850Y-79084803D01*
X140505837Y-79056762D01*
X140477797Y-79033750D01*
X139946721Y-78502675D01*
X139994637Y-78454759D01*
X140121676Y-78264632D01*
X140124385Y-78264365D01*
X140221189Y-78235000D01*
X140417049Y-78235000D01*
X140557111Y-78328586D01*
G36*
X138197759Y-86430000D02*
G01*
X138160000Y-86455229D01*
X138160000Y-86404771D01*
X138197759Y-86430000D01*
G37*
X138197759Y-86430000D02*
X138160000Y-86455229D01*
X138160000Y-86404771D01*
X138197759Y-86430000D01*
G36*
X138197759Y-83890000D02*
G01*
X138160000Y-83915229D01*
X138160000Y-83864771D01*
X138197759Y-83890000D01*
G37*
X138197759Y-83890000D02*
X138160000Y-83915229D01*
X138160000Y-83864771D01*
X138197759Y-83890000D01*
G36*
X138169195Y-81330914D02*
G01*
X138160000Y-81361225D01*
X138160000Y-81324771D01*
X138169195Y-81330914D01*
G37*
X138169195Y-81330914D02*
X138160000Y-81361225D01*
X138160000Y-81324771D01*
X138169195Y-81330914D01*
G36*
X145120147Y-79661426D02*
G01*
X145113498Y-79694851D01*
X144966638Y-79547991D01*
X144997005Y-79545000D01*
X145168372Y-79545000D01*
X145120147Y-79661426D01*
G37*
X145120147Y-79661426D02*
X145113498Y-79694851D01*
X144966638Y-79547991D01*
X144997005Y-79545000D01*
X145168372Y-79545000D01*
X145120147Y-79661426D01*
G36*
X145585241Y-66265363D02*
G01*
X145385363Y-66465241D01*
X145228320Y-66700273D01*
X145120147Y-66961426D01*
X145065000Y-67238665D01*
X145065000Y-67521335D01*
X145120147Y-67798574D01*
X145228320Y-68059727D01*
X145385363Y-68294759D01*
X145585241Y-68494637D01*
X145817759Y-68650000D01*
X145585241Y-68805363D01*
X145385363Y-69005241D01*
X145228320Y-69240273D01*
X145120147Y-69501426D01*
X145065000Y-69778665D01*
X145065000Y-70061335D01*
X145120147Y-70338574D01*
X145228320Y-70599727D01*
X145385363Y-70834759D01*
X145585241Y-71034637D01*
X145817759Y-71190000D01*
X145585241Y-71345363D01*
X145385363Y-71545241D01*
X145228320Y-71780273D01*
X145120147Y-72041426D01*
X145065000Y-72318665D01*
X145065000Y-72601335D01*
X145120147Y-72878574D01*
X145228320Y-73139727D01*
X145385363Y-73374759D01*
X145585241Y-73574637D01*
X145817759Y-73730000D01*
X145585241Y-73885363D01*
X145385363Y-74085241D01*
X145228320Y-74320273D01*
X145120147Y-74581426D01*
X145065000Y-74858665D01*
X145065000Y-75141335D01*
X145120147Y-75418574D01*
X145228320Y-75679727D01*
X145385363Y-75914759D01*
X145585241Y-76114637D01*
X145817759Y-76270000D01*
X145585241Y-76425363D01*
X145385363Y-76625241D01*
X145228320Y-76860273D01*
X145214918Y-76892628D01*
X145096028Y-76773738D01*
X144942889Y-76671414D01*
X144772729Y-76600932D01*
X144592089Y-76565000D01*
X144407911Y-76565000D01*
X144227271Y-76600932D01*
X144057111Y-76671414D01*
X143940007Y-76749660D01*
X140525659Y-73335313D01*
X140502638Y-73307262D01*
X140390720Y-73215413D01*
X140263033Y-73147163D01*
X140161373Y-73116325D01*
X140259853Y-72878574D01*
X140315000Y-72601335D01*
X140315000Y-72318665D01*
X140259853Y-72041426D01*
X140151680Y-71780273D01*
X139994637Y-71545241D01*
X139794759Y-71345363D01*
X139562241Y-71190000D01*
X139794759Y-71034637D01*
X139994637Y-70834759D01*
X140151680Y-70599727D01*
X140259853Y-70338574D01*
X140315000Y-70061335D01*
X140315000Y-69778665D01*
X140259853Y-69501426D01*
X140151680Y-69240273D01*
X139994637Y-69005241D01*
X139794759Y-68805363D01*
X139562241Y-68650000D01*
X139794759Y-68494637D01*
X139994637Y-68294759D01*
X140151680Y-68059727D01*
X140259853Y-67798574D01*
X140315000Y-67521335D01*
X140315000Y-67238665D01*
X140259853Y-66961426D01*
X140151680Y-66700273D01*
X139994637Y-66465241D01*
X139794759Y-66265363D01*
X139637072Y-66160000D01*
X145742928Y-66160000D01*
X145585241Y-66265363D01*
G37*
X145585241Y-66265363D02*
X145385363Y-66465241D01*
X145228320Y-66700273D01*
X145120147Y-66961426D01*
X145065000Y-67238665D01*
X145065000Y-67521335D01*
X145120147Y-67798574D01*
X145228320Y-68059727D01*
X145385363Y-68294759D01*
X145585241Y-68494637D01*
X145817759Y-68650000D01*
X145585241Y-68805363D01*
X145385363Y-69005241D01*
X145228320Y-69240273D01*
X145120147Y-69501426D01*
X145065000Y-69778665D01*
X145065000Y-70061335D01*
X145120147Y-70338574D01*
X145228320Y-70599727D01*
X145385363Y-70834759D01*
X145585241Y-71034637D01*
X145817759Y-71190000D01*
X145585241Y-71345363D01*
X145385363Y-71545241D01*
X145228320Y-71780273D01*
X145120147Y-72041426D01*
X145065000Y-72318665D01*
X145065000Y-72601335D01*
X145120147Y-72878574D01*
X145228320Y-73139727D01*
X145385363Y-73374759D01*
X145585241Y-73574637D01*
X145817759Y-73730000D01*
X145585241Y-73885363D01*
X145385363Y-74085241D01*
X145228320Y-74320273D01*
X145120147Y-74581426D01*
X145065000Y-74858665D01*
X145065000Y-75141335D01*
X145120147Y-75418574D01*
X145228320Y-75679727D01*
X145385363Y-75914759D01*
X145585241Y-76114637D01*
X145817759Y-76270000D01*
X145585241Y-76425363D01*
X145385363Y-76625241D01*
X145228320Y-76860273D01*
X145214918Y-76892628D01*
X145096028Y-76773738D01*
X144942889Y-76671414D01*
X144772729Y-76600932D01*
X144592089Y-76565000D01*
X144407911Y-76565000D01*
X144227271Y-76600932D01*
X144057111Y-76671414D01*
X143940007Y-76749660D01*
X140525659Y-73335313D01*
X140502638Y-73307262D01*
X140390720Y-73215413D01*
X140263033Y-73147163D01*
X140161373Y-73116325D01*
X140259853Y-72878574D01*
X140315000Y-72601335D01*
X140315000Y-72318665D01*
X140259853Y-72041426D01*
X140151680Y-71780273D01*
X139994637Y-71545241D01*
X139794759Y-71345363D01*
X139562241Y-71190000D01*
X139794759Y-71034637D01*
X139994637Y-70834759D01*
X140151680Y-70599727D01*
X140259853Y-70338574D01*
X140315000Y-70061335D01*
X140315000Y-69778665D01*
X140259853Y-69501426D01*
X140151680Y-69240273D01*
X139994637Y-69005241D01*
X139794759Y-68805363D01*
X139562241Y-68650000D01*
X139794759Y-68494637D01*
X139994637Y-68294759D01*
X140151680Y-68059727D01*
X140259853Y-67798574D01*
X140315000Y-67521335D01*
X140315000Y-67238665D01*
X140259853Y-66961426D01*
X140151680Y-66700273D01*
X139994637Y-66465241D01*
X139794759Y-66265363D01*
X139637072Y-66160000D01*
X145742928Y-66160000D01*
X145585241Y-66265363D01*
G36*
X147340000Y-76375411D02*
G01*
X147182241Y-76270000D01*
X147340000Y-76164589D01*
X147340000Y-76375411D01*
G37*
X147340000Y-76375411D02*
X147182241Y-76270000D01*
X147340000Y-76164589D01*
X147340000Y-76375411D01*
G36*
X140726463Y-75615009D02*
G01*
X140696095Y-75618000D01*
X140177248Y-75618000D01*
X140259853Y-75418574D01*
X140304678Y-75193225D01*
X140726463Y-75615009D01*
G37*
X140726463Y-75615009D02*
X140696095Y-75618000D01*
X140177248Y-75618000D01*
X140259853Y-75418574D01*
X140304678Y-75193225D01*
X140726463Y-75615009D01*
G36*
X133840000Y-62997633D02*
G01*
X133839531Y-63060042D01*
X133846112Y-63094479D01*
X133849550Y-63129382D01*
X133858288Y-63158186D01*
X133863936Y-63187740D01*
X133877110Y-63220232D01*
X133887290Y-63253792D01*
X133901478Y-63280336D01*
X133912784Y-63308222D01*
X133932043Y-63337520D01*
X133948575Y-63368449D01*
X133967668Y-63391715D01*
X133984198Y-63416860D01*
X134008803Y-63441838D01*
X134031052Y-63468948D01*
X134079429Y-63508650D01*
X137029467Y-65967017D01*
X137031052Y-65968948D01*
X137079312Y-66008555D01*
X137102383Y-66027780D01*
X137104445Y-66029180D01*
X137131550Y-66051425D01*
X137158089Y-66065610D01*
X137182986Y-66082518D01*
X137215284Y-66096181D01*
X137246207Y-66112710D01*
X137275005Y-66121446D01*
X137302721Y-66133171D01*
X137337057Y-66140270D01*
X137370617Y-66150450D01*
X137400570Y-66153400D01*
X137430037Y-66159492D01*
X137465098Y-66159755D01*
X137467581Y-66160000D01*
X137497634Y-66160000D01*
X137560042Y-66160469D01*
X137562496Y-66160000D01*
X138122928Y-66160000D01*
X137965241Y-66265363D01*
X137765363Y-66465241D01*
X137645252Y-66645000D01*
X129144447Y-66645000D01*
X127131932Y-64632485D01*
X127099068Y-64467271D01*
X127028586Y-64297111D01*
X126926262Y-64143972D01*
X126796028Y-64013738D01*
X126642889Y-63911414D01*
X126472729Y-63840932D01*
X126292089Y-63805000D01*
X126107911Y-63805000D01*
X125927271Y-63840932D01*
X125757111Y-63911414D01*
X125603972Y-64013738D01*
X125473738Y-64143972D01*
X125371414Y-64297111D01*
X125300932Y-64467271D01*
X125265000Y-64647911D01*
X125265000Y-64832089D01*
X125300932Y-65012729D01*
X125371414Y-65182889D01*
X125473738Y-65336028D01*
X125603972Y-65466262D01*
X125757111Y-65568586D01*
X125927271Y-65639068D01*
X126092485Y-65671932D01*
X128294746Y-67874193D01*
X128317762Y-67902238D01*
X128429680Y-67994087D01*
X128557367Y-68062337D01*
X128695915Y-68104365D01*
X128840000Y-68118556D01*
X128876105Y-68115000D01*
X137645252Y-68115000D01*
X137765363Y-68294759D01*
X137965241Y-68494637D01*
X138197759Y-68650000D01*
X137965241Y-68805363D01*
X137765363Y-69005241D01*
X137608320Y-69240273D01*
X137500147Y-69501426D01*
X137445000Y-69778665D01*
X137445000Y-70061335D01*
X137500147Y-70338574D01*
X137608320Y-70599727D01*
X137765363Y-70834759D01*
X137965241Y-71034637D01*
X138197759Y-71190000D01*
X137965241Y-71345363D01*
X137765363Y-71545241D01*
X137608320Y-71780273D01*
X137558880Y-71899633D01*
X134848459Y-69189213D01*
X134825438Y-69161162D01*
X134713520Y-69069313D01*
X134585833Y-69001063D01*
X134447285Y-68959035D01*
X134339305Y-68948400D01*
X134303200Y-68944844D01*
X134267095Y-68948400D01*
X129702951Y-68948400D01*
X129562889Y-68854814D01*
X129392729Y-68784332D01*
X129212089Y-68748400D01*
X129027911Y-68748400D01*
X128847271Y-68784332D01*
X128677111Y-68854814D01*
X128523972Y-68957138D01*
X128393738Y-69087372D01*
X128291414Y-69240511D01*
X128220932Y-69410671D01*
X128185000Y-69591311D01*
X128185000Y-69775489D01*
X128220932Y-69956129D01*
X128291414Y-70126289D01*
X128393738Y-70279428D01*
X128474588Y-70360278D01*
X128422114Y-70438811D01*
X128351632Y-70608971D01*
X128315700Y-70789611D01*
X128315700Y-70973789D01*
X128351632Y-71154429D01*
X128422114Y-71324589D01*
X128524438Y-71477728D01*
X128654672Y-71607962D01*
X128807811Y-71710286D01*
X128977971Y-71780768D01*
X129158611Y-71816700D01*
X129342789Y-71816700D01*
X129523429Y-71780768D01*
X129693589Y-71710286D01*
X129833651Y-71616700D01*
X131941854Y-71616700D01*
X132794554Y-72469400D01*
X129508847Y-72469400D01*
X124947358Y-67907911D01*
X126065000Y-67907911D01*
X126065000Y-68092089D01*
X126100932Y-68272729D01*
X126171414Y-68442889D01*
X126273738Y-68596028D01*
X126403972Y-68726262D01*
X126557111Y-68828586D01*
X126727271Y-68899068D01*
X126907911Y-68935000D01*
X127092089Y-68935000D01*
X127272729Y-68899068D01*
X127442889Y-68828586D01*
X127596028Y-68726262D01*
X127726262Y-68596028D01*
X127828586Y-68442889D01*
X127899068Y-68272729D01*
X127935000Y-68092089D01*
X127935000Y-67907911D01*
X127899068Y-67727271D01*
X127828586Y-67557111D01*
X127726262Y-67403972D01*
X127596028Y-67273738D01*
X127442889Y-67171414D01*
X127272729Y-67100932D01*
X127092089Y-67065000D01*
X126907911Y-67065000D01*
X126727271Y-67100932D01*
X126557111Y-67171414D01*
X126403972Y-67273738D01*
X126273738Y-67403972D01*
X126171414Y-67557111D01*
X126100932Y-67727271D01*
X126065000Y-67907911D01*
X124947358Y-67907911D01*
X124931932Y-67892486D01*
X124899068Y-67727271D01*
X124828586Y-67557111D01*
X124726262Y-67403972D01*
X124596028Y-67273738D01*
X124442889Y-67171414D01*
X124272729Y-67100932D01*
X124092089Y-67065000D01*
X123907911Y-67065000D01*
X123727271Y-67100932D01*
X123557111Y-67171414D01*
X123403972Y-67273738D01*
X123273738Y-67403972D01*
X123171414Y-67557111D01*
X123100932Y-67727271D01*
X123065000Y-67907911D01*
X123065000Y-68092089D01*
X123100932Y-68272729D01*
X123171414Y-68442889D01*
X123273738Y-68596028D01*
X123403972Y-68726262D01*
X123557111Y-68828586D01*
X123727271Y-68899068D01*
X123892486Y-68931932D01*
X128659146Y-73698593D01*
X128682162Y-73726638D01*
X128794080Y-73818487D01*
X128921767Y-73886737D01*
X129018286Y-73916016D01*
X129060314Y-73928765D01*
X129204399Y-73942956D01*
X129240504Y-73939400D01*
X133139654Y-73939400D01*
X133835254Y-74635000D01*
X123862951Y-74635000D01*
X123722889Y-74541414D01*
X123552729Y-74470932D01*
X123372089Y-74435000D01*
X123187911Y-74435000D01*
X123007271Y-74470932D01*
X122837111Y-74541414D01*
X122683972Y-74643738D01*
X122553738Y-74773972D01*
X122451414Y-74927111D01*
X122380932Y-75097271D01*
X122345000Y-75277911D01*
X122345000Y-75340000D01*
X119660000Y-75340000D01*
X119660000Y-60660000D01*
X133840001Y-60660000D01*
X133840000Y-62997633D01*
G37*
X133840000Y-62997633D02*
X133839531Y-63060042D01*
X133846112Y-63094479D01*
X133849550Y-63129382D01*
X133858288Y-63158186D01*
X133863936Y-63187740D01*
X133877110Y-63220232D01*
X133887290Y-63253792D01*
X133901478Y-63280336D01*
X133912784Y-63308222D01*
X133932043Y-63337520D01*
X133948575Y-63368449D01*
X133967668Y-63391715D01*
X133984198Y-63416860D01*
X134008803Y-63441838D01*
X134031052Y-63468948D01*
X134079429Y-63508650D01*
X137029467Y-65967017D01*
X137031052Y-65968948D01*
X137079312Y-66008555D01*
X137102383Y-66027780D01*
X137104445Y-66029180D01*
X137131550Y-66051425D01*
X137158089Y-66065610D01*
X137182986Y-66082518D01*
X137215284Y-66096181D01*
X137246207Y-66112710D01*
X137275005Y-66121446D01*
X137302721Y-66133171D01*
X137337057Y-66140270D01*
X137370617Y-66150450D01*
X137400570Y-66153400D01*
X137430037Y-66159492D01*
X137465098Y-66159755D01*
X137467581Y-66160000D01*
X137497634Y-66160000D01*
X137560042Y-66160469D01*
X137562496Y-66160000D01*
X138122928Y-66160000D01*
X137965241Y-66265363D01*
X137765363Y-66465241D01*
X137645252Y-66645000D01*
X129144447Y-66645000D01*
X127131932Y-64632485D01*
X127099068Y-64467271D01*
X127028586Y-64297111D01*
X126926262Y-64143972D01*
X126796028Y-64013738D01*
X126642889Y-63911414D01*
X126472729Y-63840932D01*
X126292089Y-63805000D01*
X126107911Y-63805000D01*
X125927271Y-63840932D01*
X125757111Y-63911414D01*
X125603972Y-64013738D01*
X125473738Y-64143972D01*
X125371414Y-64297111D01*
X125300932Y-64467271D01*
X125265000Y-64647911D01*
X125265000Y-64832089D01*
X125300932Y-65012729D01*
X125371414Y-65182889D01*
X125473738Y-65336028D01*
X125603972Y-65466262D01*
X125757111Y-65568586D01*
X125927271Y-65639068D01*
X126092485Y-65671932D01*
X128294746Y-67874193D01*
X128317762Y-67902238D01*
X128429680Y-67994087D01*
X128557367Y-68062337D01*
X128695915Y-68104365D01*
X128840000Y-68118556D01*
X128876105Y-68115000D01*
X137645252Y-68115000D01*
X137765363Y-68294759D01*
X137965241Y-68494637D01*
X138197759Y-68650000D01*
X137965241Y-68805363D01*
X137765363Y-69005241D01*
X137608320Y-69240273D01*
X137500147Y-69501426D01*
X137445000Y-69778665D01*
X137445000Y-70061335D01*
X137500147Y-70338574D01*
X137608320Y-70599727D01*
X137765363Y-70834759D01*
X137965241Y-71034637D01*
X138197759Y-71190000D01*
X137965241Y-71345363D01*
X137765363Y-71545241D01*
X137608320Y-71780273D01*
X137558880Y-71899633D01*
X134848459Y-69189213D01*
X134825438Y-69161162D01*
X134713520Y-69069313D01*
X134585833Y-69001063D01*
X134447285Y-68959035D01*
X134339305Y-68948400D01*
X134303200Y-68944844D01*
X134267095Y-68948400D01*
X129702951Y-68948400D01*
X129562889Y-68854814D01*
X129392729Y-68784332D01*
X129212089Y-68748400D01*
X129027911Y-68748400D01*
X128847271Y-68784332D01*
X128677111Y-68854814D01*
X128523972Y-68957138D01*
X128393738Y-69087372D01*
X128291414Y-69240511D01*
X128220932Y-69410671D01*
X128185000Y-69591311D01*
X128185000Y-69775489D01*
X128220932Y-69956129D01*
X128291414Y-70126289D01*
X128393738Y-70279428D01*
X128474588Y-70360278D01*
X128422114Y-70438811D01*
X128351632Y-70608971D01*
X128315700Y-70789611D01*
X128315700Y-70973789D01*
X128351632Y-71154429D01*
X128422114Y-71324589D01*
X128524438Y-71477728D01*
X128654672Y-71607962D01*
X128807811Y-71710286D01*
X128977971Y-71780768D01*
X129158611Y-71816700D01*
X129342789Y-71816700D01*
X129523429Y-71780768D01*
X129693589Y-71710286D01*
X129833651Y-71616700D01*
X131941854Y-71616700D01*
X132794554Y-72469400D01*
X129508847Y-72469400D01*
X124947358Y-67907911D01*
X126065000Y-67907911D01*
X126065000Y-68092089D01*
X126100932Y-68272729D01*
X126171414Y-68442889D01*
X126273738Y-68596028D01*
X126403972Y-68726262D01*
X126557111Y-68828586D01*
X126727271Y-68899068D01*
X126907911Y-68935000D01*
X127092089Y-68935000D01*
X127272729Y-68899068D01*
X127442889Y-68828586D01*
X127596028Y-68726262D01*
X127726262Y-68596028D01*
X127828586Y-68442889D01*
X127899068Y-68272729D01*
X127935000Y-68092089D01*
X127935000Y-67907911D01*
X127899068Y-67727271D01*
X127828586Y-67557111D01*
X127726262Y-67403972D01*
X127596028Y-67273738D01*
X127442889Y-67171414D01*
X127272729Y-67100932D01*
X127092089Y-67065000D01*
X126907911Y-67065000D01*
X126727271Y-67100932D01*
X126557111Y-67171414D01*
X126403972Y-67273738D01*
X126273738Y-67403972D01*
X126171414Y-67557111D01*
X126100932Y-67727271D01*
X126065000Y-67907911D01*
X124947358Y-67907911D01*
X124931932Y-67892486D01*
X124899068Y-67727271D01*
X124828586Y-67557111D01*
X124726262Y-67403972D01*
X124596028Y-67273738D01*
X124442889Y-67171414D01*
X124272729Y-67100932D01*
X124092089Y-67065000D01*
X123907911Y-67065000D01*
X123727271Y-67100932D01*
X123557111Y-67171414D01*
X123403972Y-67273738D01*
X123273738Y-67403972D01*
X123171414Y-67557111D01*
X123100932Y-67727271D01*
X123065000Y-67907911D01*
X123065000Y-68092089D01*
X123100932Y-68272729D01*
X123171414Y-68442889D01*
X123273738Y-68596028D01*
X123403972Y-68726262D01*
X123557111Y-68828586D01*
X123727271Y-68899068D01*
X123892486Y-68931932D01*
X128659146Y-73698593D01*
X128682162Y-73726638D01*
X128794080Y-73818487D01*
X128921767Y-73886737D01*
X129018286Y-73916016D01*
X129060314Y-73928765D01*
X129204399Y-73942956D01*
X129240504Y-73939400D01*
X133139654Y-73939400D01*
X133835254Y-74635000D01*
X123862951Y-74635000D01*
X123722889Y-74541414D01*
X123552729Y-74470932D01*
X123372089Y-74435000D01*
X123187911Y-74435000D01*
X123007271Y-74470932D01*
X122837111Y-74541414D01*
X122683972Y-74643738D01*
X122553738Y-74773972D01*
X122451414Y-74927111D01*
X122380932Y-75097271D01*
X122345000Y-75277911D01*
X122345000Y-75340000D01*
X119660000Y-75340000D01*
X119660000Y-60660000D01*
X133840001Y-60660000D01*
X133840000Y-62997633D01*
G36*
X137725401Y-74145048D02*
G01*
X137608320Y-74320273D01*
X137500147Y-74581426D01*
X137445000Y-74858665D01*
X137445000Y-75040953D01*
X132822446Y-70418400D01*
X133998754Y-70418400D01*
X137725401Y-74145048D01*
G37*
X137725401Y-74145048D02*
X137608320Y-74320273D01*
X137500147Y-74581426D01*
X137445000Y-74858665D01*
X137445000Y-75040953D01*
X132822446Y-70418400D01*
X133998754Y-70418400D01*
X137725401Y-74145048D01*
G36*
X147340000Y-73835411D02*
G01*
X147182241Y-73730000D01*
X147340000Y-73624589D01*
X147340000Y-73835411D01*
G37*
X147340000Y-73835411D02*
X147182241Y-73730000D01*
X147340000Y-73624589D01*
X147340000Y-73835411D01*
G36*
X147340000Y-71295411D02*
G01*
X147182241Y-71190000D01*
X147340000Y-71084589D01*
X147340000Y-71295411D01*
G37*
X147340000Y-71295411D02*
X147182241Y-71190000D01*
X147340000Y-71084589D01*
X147340000Y-71295411D01*
G36*
X147340000Y-68755411D02*
G01*
X147182241Y-68650000D01*
X147340000Y-68544589D01*
X147340000Y-68755411D01*
G37*
X147340000Y-68755411D02*
X147182241Y-68650000D01*
X147340000Y-68544589D01*
X147340000Y-68755411D01*
G36*
X147340000Y-66215411D02*
G01*
X147257072Y-66160000D01*
X147340000Y-66160000D01*
X147340000Y-66215411D01*
G37*
X147340000Y-66215411D02*
X147257072Y-66160000D01*
X147340000Y-66160000D01*
X147340000Y-66215411D01*
%TD*%
M02*
