%TF.GenerationSoftware,KiCad,Pcbnew,(5.1.6)-1*%
%TF.CreationDate,2021-02-27T12:52:12+00:00*%
%TF.ProjectId,EgretCudaAdapter,45677265-7443-4756-9461-416461707465,rev?*%
%TF.SameCoordinates,Original*%
%TF.FileFunction,Legend,Top*%
%TF.FilePolarity,Positive*%
%FSLAX46Y46*%
G04 Gerber Fmt 4.6, Leading zero omitted, Abs format (unit mm)*
G04 Created by KiCad (PCBNEW (5.1.6)-1) date 2021-02-27 12:52:12*
%MOMM*%
%LPD*%
G01*
G04 APERTURE LIST*
%ADD10C,0.120000*%
%ADD11C,0.100000*%
%ADD12C,0.150000*%
G04 APERTURE END LIST*
D10*
%TO.C,344-0440-B*%
X140040000Y-89030000D02*
X141690000Y-89030000D01*
X140040000Y-66050000D02*
X140040000Y-89030000D01*
X145340000Y-66050000D02*
X140040000Y-66050000D01*
X145340000Y-89030000D02*
X145340000Y-66050000D01*
X143690000Y-89030000D02*
X145340000Y-89030000D01*
X141690000Y-89030000D02*
G75*
G02*
X143690000Y-89030000I1000000J0D01*
G01*
D11*
%TO.C,344S0440-B*%
X120565000Y-61565000D02*
X120565000Y-63215000D01*
X122215000Y-61565000D02*
X120565000Y-61565000D01*
X133435000Y-61565000D02*
X133435000Y-63215000D01*
X131785000Y-61565000D02*
X133435000Y-61565000D01*
X120565000Y-74435000D02*
X120565000Y-72785000D01*
X122215000Y-74435000D02*
X120565000Y-74435000D01*
X133435000Y-73285000D02*
X133435000Y-72785000D01*
X132285000Y-74435000D02*
X133435000Y-73285000D01*
X131785000Y-74435000D02*
X132285000Y-74435000D01*
%TO.C,344-0440-B*%
D12*
X142202380Y-82178571D02*
X142202380Y-81559523D01*
X142583333Y-81892857D01*
X142583333Y-81750000D01*
X142630952Y-81654761D01*
X142678571Y-81607142D01*
X142773809Y-81559523D01*
X143011904Y-81559523D01*
X143107142Y-81607142D01*
X143154761Y-81654761D01*
X143202380Y-81750000D01*
X143202380Y-82035714D01*
X143154761Y-82130952D01*
X143107142Y-82178571D01*
X142535714Y-80702380D02*
X143202380Y-80702380D01*
X142154761Y-80940476D02*
X142869047Y-81178571D01*
X142869047Y-80559523D01*
X142535714Y-79750000D02*
X143202380Y-79750000D01*
X142154761Y-79988095D02*
X142869047Y-80226190D01*
X142869047Y-79607142D01*
X142821428Y-79226190D02*
X142821428Y-78464285D01*
X142202380Y-77797619D02*
X142202380Y-77702380D01*
X142250000Y-77607142D01*
X142297619Y-77559523D01*
X142392857Y-77511904D01*
X142583333Y-77464285D01*
X142821428Y-77464285D01*
X143011904Y-77511904D01*
X143107142Y-77559523D01*
X143154761Y-77607142D01*
X143202380Y-77702380D01*
X143202380Y-77797619D01*
X143154761Y-77892857D01*
X143107142Y-77940476D01*
X143011904Y-77988095D01*
X142821428Y-78035714D01*
X142583333Y-78035714D01*
X142392857Y-77988095D01*
X142297619Y-77940476D01*
X142250000Y-77892857D01*
X142202380Y-77797619D01*
X142535714Y-76607142D02*
X143202380Y-76607142D01*
X142154761Y-76845238D02*
X142869047Y-77083333D01*
X142869047Y-76464285D01*
X142535714Y-75654761D02*
X143202380Y-75654761D01*
X142154761Y-75892857D02*
X142869047Y-76130952D01*
X142869047Y-75511904D01*
X142202380Y-74940476D02*
X142202380Y-74845238D01*
X142250000Y-74750000D01*
X142297619Y-74702380D01*
X142392857Y-74654761D01*
X142583333Y-74607142D01*
X142821428Y-74607142D01*
X143011904Y-74654761D01*
X143107142Y-74702380D01*
X143154761Y-74750000D01*
X143202380Y-74845238D01*
X143202380Y-74940476D01*
X143154761Y-75035714D01*
X143107142Y-75083333D01*
X143011904Y-75130952D01*
X142821428Y-75178571D01*
X142583333Y-75178571D01*
X142392857Y-75130952D01*
X142297619Y-75083333D01*
X142250000Y-75035714D01*
X142202380Y-74940476D01*
X142821428Y-74178571D02*
X142821428Y-73416666D01*
X142678571Y-72607142D02*
X142726190Y-72464285D01*
X142773809Y-72416666D01*
X142869047Y-72369047D01*
X143011904Y-72369047D01*
X143107142Y-72416666D01*
X143154761Y-72464285D01*
X143202380Y-72559523D01*
X143202380Y-72940476D01*
X142202380Y-72940476D01*
X142202380Y-72607142D01*
X142250000Y-72511904D01*
X142297619Y-72464285D01*
X142392857Y-72416666D01*
X142488095Y-72416666D01*
X142583333Y-72464285D01*
X142630952Y-72511904D01*
X142678571Y-72607142D01*
X142678571Y-72940476D01*
%TO.C,344S0440-B*%
X123228763Y-70996785D02*
X123666496Y-70559053D01*
X123700168Y-71064129D01*
X123801183Y-70963114D01*
X123902198Y-70929442D01*
X123969542Y-70929442D01*
X124070557Y-70963114D01*
X124238916Y-71131472D01*
X124272588Y-71232488D01*
X124272588Y-71299831D01*
X124238916Y-71400846D01*
X124036885Y-71602877D01*
X123935870Y-71636549D01*
X123868527Y-71636549D01*
X124508290Y-70188663D02*
X124979694Y-70660068D01*
X124070557Y-70087648D02*
X124407275Y-70761083D01*
X124845007Y-70323350D01*
X125181725Y-69515228D02*
X125653129Y-69986633D01*
X124743992Y-69414213D02*
X125080710Y-70087648D01*
X125518442Y-69649915D01*
X125956175Y-69616244D02*
X126090862Y-69548900D01*
X126259221Y-69380541D01*
X126292893Y-69279526D01*
X126292893Y-69212183D01*
X126259221Y-69111167D01*
X126191877Y-69043824D01*
X126090862Y-69010152D01*
X126023519Y-69010152D01*
X125922503Y-69043824D01*
X125754145Y-69144839D01*
X125653129Y-69178511D01*
X125585786Y-69178511D01*
X125484771Y-69144839D01*
X125417427Y-69077496D01*
X125383755Y-68976480D01*
X125383755Y-68909137D01*
X125417427Y-68808122D01*
X125585786Y-68639763D01*
X125720473Y-68572419D01*
X126124534Y-68101015D02*
X126191877Y-68033671D01*
X126292893Y-68000000D01*
X126360236Y-68000000D01*
X126461251Y-68033671D01*
X126629610Y-68134687D01*
X126797969Y-68303045D01*
X126898984Y-68471404D01*
X126932656Y-68572419D01*
X126932656Y-68639763D01*
X126898984Y-68740778D01*
X126831641Y-68808122D01*
X126730625Y-68841793D01*
X126663282Y-68841793D01*
X126562267Y-68808122D01*
X126393908Y-68707106D01*
X126225549Y-68538748D01*
X126124534Y-68370389D01*
X126090862Y-68269374D01*
X126090862Y-68202030D01*
X126124534Y-68101015D01*
X127202030Y-67494923D02*
X127673435Y-67966328D01*
X126764297Y-67393908D02*
X127101015Y-68067343D01*
X127538748Y-67629610D01*
X127875465Y-66821488D02*
X128346870Y-67292893D01*
X127437732Y-66720473D02*
X127774450Y-67393908D01*
X128212183Y-66956175D01*
X128144839Y-66080710D02*
X128212183Y-66013366D01*
X128313198Y-65979694D01*
X128380541Y-65979694D01*
X128481557Y-66013366D01*
X128649915Y-66114381D01*
X128818274Y-66282740D01*
X128919289Y-66451099D01*
X128952961Y-66552114D01*
X128952961Y-66619458D01*
X128919289Y-66720473D01*
X128851946Y-66787816D01*
X128750931Y-66821488D01*
X128683587Y-66821488D01*
X128582572Y-66787816D01*
X128414213Y-66686801D01*
X128245854Y-66518442D01*
X128144839Y-66350084D01*
X128111167Y-66249068D01*
X128111167Y-66181725D01*
X128144839Y-66080710D01*
X129121320Y-65979694D02*
X129660068Y-65440946D01*
X130131472Y-64767511D02*
X130266159Y-64700168D01*
X130333503Y-64700168D01*
X130434518Y-64733840D01*
X130535533Y-64834855D01*
X130569205Y-64935870D01*
X130569205Y-65003214D01*
X130535533Y-65104229D01*
X130266159Y-65373603D01*
X129559053Y-64666496D01*
X129794755Y-64430794D01*
X129895770Y-64397122D01*
X129963114Y-64397122D01*
X130064129Y-64430794D01*
X130131472Y-64498137D01*
X130165144Y-64599153D01*
X130165144Y-64666496D01*
X130131472Y-64767511D01*
X129895770Y-65003214D01*
%TD*%
M02*
